<?xml version="1.0" standalone="no"?>
<!DOCTYPE svg PUBLIC "-//W3C//DTD SVG 1.1//EN" "http://www.w3.org/Graphics/SVG/1.1/DTD/svg11.dtd" >
<svg xmlns="http://www.w3.org/2000/svg" xmlns:xlink="http://www.w3.org/1999/xlink" version="1.1">
<metadata>
Created by FontForge 20170731 at Mon Jul 26 04:30:42 2021
 By Aleksey,,,
Copyright (c) 2016 by Fontfabric LLC. All rights reserved.
</metadata>
<defs>
<font id="Akrobat-Regular" horiz-adv-x="0" >
  <font-face 
    font-family="Akrobat"
    font-weight="500"
    font-stretch="normal"
    units-per-em="2048"
    panose-1="0 0 6 0 0 0 0 0 0 0"
    ascent="1638"
    descent="-410"
    x-height="1075"
    cap-height="1434"
    bbox="-780 -510 1642 1937"
    underline-thickness="102"
    underline-position="-307"
    unicode-range="U+0020-25CA"
  />
<missing-glyph horiz-adv-x="1024" 
d="M840 1638v-2048h-650v2048h650zM682 1501h-338v-67h133v-76h-135v-68h340v68h-135v76h135v67zM547 1237h-205v-213h340v70h-135v143zM477 1167v-73h-67v73h67zM682 969h-340v-68h135v-76h-135v-67h205v143h135v68zM682 846h-68v-135h-272v-70h340v205zM682 596h-205v-115
h70v47h67v-96h-204v164h-68v-231h340v231zM682 242h-340v-232h340v232zM614 174v-96h-204v96h204zM682 -37h-340v-67h143l-143 -97v-67h340v67h-209l143 97h66v67z" />
    <glyph glyph-name=".notdef" horiz-adv-x="1024" 
d="M840 1638v-2048h-650v2048h650zM682 1501h-338v-67h133v-76h-135v-68h340v68h-135v76h135v67zM547 1237h-205v-213h340v70h-135v143zM477 1167v-73h-67v73h67zM682 969h-340v-68h135v-76h-135v-67h205v143h135v68zM682 846h-68v-135h-272v-70h340v205zM682 596h-205v-115
h70v47h67v-96h-204v164h-68v-231h340v231zM682 242h-340v-232h340v232zM614 174v-96h-204v96h204zM682 -37h-340v-67h143l-143 -97v-67h340v67h-209l143 97h66v67z" />
    <glyph glyph-name=".null" 
 />
    <glyph glyph-name="nonmarkingreturn" horiz-adv-x="682" 
 />
    <glyph glyph-name="space" unicode=" " horiz-adv-x="468" 
 />
    <glyph glyph-name="exclam" unicode="!" horiz-adv-x="450" 
d="M164 295v1139h123v-1139h-123zM225 -20q-43 0 -69.5 26.5t-26.5 69.5t26.5 69.5t69.5 26.5t70 -26.5t27 -69.5t-27 -69.5t-70 -26.5z" />
    <glyph glyph-name="quotedbl" unicode="&#x22;" horiz-adv-x="460" 
d="M76 1434h137l-94 -426h-86zM281 1434h137l-94 -426h-86z" />
    <glyph glyph-name="numbersign" unicode="#" horiz-adv-x="1157" 
d="M195 0l88 387h-254l24 100h252l101 437h-254l22 100h254l94 410h111l-94 -410h221l94 410h113l-95 -410h256l-22 -100h-256l-100 -437h258l-25 -100h-256l-88 -387h-113l88 387h-221l-88 -387h-110zM416 487h221l100 437h-221z" />
    <glyph glyph-name="dollar" unicode="$" horiz-adv-x="923" 
d="M850 360q0 -96 -39.5 -180t-122 -142t-194.5 -65v-147h-93v151q-151 20 -240.5 125.5t-94.5 266.5h127q4 -132 75 -202.5t193 -70.5q127 0 193.5 71.5t66.5 192.5q0 53 -21.5 99t-58.5 81.5t-84.5 68.5t-100.5 63.5t-105.5 62.5t-100 70t-84.5 80.5t-58.5 100
t-21.5 124.5q0 136 87 232.5t228 113.5v152h93v-150q150 -12 239.5 -116.5t97.5 -266.5h-126q-6 130 -71.5 196t-172.5 66q-116 0 -181 -61.5t-65 -165.5q0 -53 21.5 -98.5t58.5 -80.5t84.5 -67t100 -62t105.5 -61.5t100.5 -69.5t84.5 -81t58.5 -102t21.5 -128z" />
    <glyph glyph-name="percent" unicode="%" horiz-adv-x="1159" 
d="M229 805q-88 0 -143 58.5t-55 162.5v203q0 104 55.5 163.5t142.5 59.5q86 0 141.5 -59.5t55.5 -163.5v-203q0 -104 -55.5 -162.5t-141.5 -58.5zM53 0l934 1434h119l-934 -1434h-119zM229 901q44 0 70.5 30.5t26.5 94.5v203q0 66 -26.5 96.5t-70.5 30.5q-98 0 -98 -127
v-203q0 -125 98 -125zM934 -18q-88 0 -143.5 58.5t-55.5 162.5v203q0 104 56 163.5t143 59.5q86 0 141 -59.5t55 -163.5v-203q0 -104 -55 -162.5t-141 -58.5zM934 78q44 0 70 30.5t26 94.5v203q0 126 -96 126q-98 0 -98 -126v-203q0 -125 98 -125z" />
    <glyph glyph-name="ampersand" unicode="&#x26;" horiz-adv-x="1171" 
d="M1110 0h-149q-92 135 -119 172q-155 -199 -357 -199q-143 0 -235 93t-92 253q0 72 20 137.5t60 123t78.5 100t95.5 94.5q-160 253 -160 404q0 122 75.5 202t211.5 80q98 0 165 -45t95 -112t26 -148q-2 -49 -17.5 -96.5t-36.5 -83.5t-58 -79.5t-64.5 -71t-73.5 -70.5
q104 -157 254 -359q46 93 72 180h141q-62 -181 -129 -296q108 -143 197 -279zM379 1174q0 -102 127 -314q95 86 143.5 153.5t48.5 145.5q0 76 -43 127t-116 51q-74 0 -117 -46.5t-43 -116.5zM498 96q137 0 264 185q-33 46 -92.5 126t-105.5 143t-83 118q-90 -86 -139 -164.5
t-49 -169.5q0 -104 59 -171t146 -67z" />
    <glyph glyph-name="quotesingle" unicode="'" horiz-adv-x="256" 
d="M76 1434h137l-94 -426h-86z" />
    <glyph glyph-name="parenleft" unicode="(" horiz-adv-x="563" 
d="M455 -246q-132 8 -214.5 100.5t-82.5 233.5v1260q0 140 82.5 232t214.5 99v-116q-79 -6 -126.5 -64t-47.5 -151v-1260q0 -93 47.5 -151t126.5 -66v-117z" />
    <glyph glyph-name="parenright" unicode=")" horiz-adv-x="563" 
d="M109 -246v117q79 8 126.5 66t47.5 151v1260q0 93 -47.5 151t-126.5 64v116q132 -7 214.5 -99t82.5 -232v-1260q0 -141 -82.5 -233.5t-214.5 -100.5z" />
    <glyph glyph-name="asterisk" unicode="*" horiz-adv-x="598" 
d="M190 1008l-75 53l108 149l-172 56l27 88l174 -58v183h92v-183l174 56l29 -86l-176 -56l108 -149l-73 -55l-109 149z" />
    <glyph glyph-name="plus" unicode="+" horiz-adv-x="905" 
d="M811 690v-115h-301v-307h-115v307h-301v115h301v307h115v-307h301z" />
    <glyph glyph-name="comma" unicode="," horiz-adv-x="303" 
d="M104 160h138l-95 -426h-86z" />
    <glyph glyph-name="hyphen" unicode="-" horiz-adv-x="679" 
d="M94 469v115h492v-115h-492z" />
    <glyph glyph-name="period" unicode="." horiz-adv-x="372" 
d="M186 -20q-43 0 -69.5 26.5t-26.5 69.5t26.5 69.5t69.5 26.5t70 -26.5t27 -69.5t-27 -69.5t-70 -26.5z" />
    <glyph glyph-name="slash" unicode="/" horiz-adv-x="831" 
d="M690 1659h121l-670 -1895h-121z" />
    <glyph glyph-name="zero" unicode="0" horiz-adv-x="933" 
d="M467 -20q-157 0 -252.5 102.5t-95.5 269.5v727q0 169 95.5 272t252.5 103t252.5 -103t95.5 -272v-727q0 -167 -95.5 -269.5t-252.5 -102.5zM467 98q107 0 167 67t60 187v727q0 121 -60 188.5t-167 67.5t-167 -67.5t-60 -188.5v-727q0 -120 60 -187t167 -67z" />
    <glyph glyph-name="one" unicode="1" horiz-adv-x="569" 
d="M289 1434h123v-1424h-123v1262l-236 -197v156z" />
    <glyph glyph-name="two" unicode="2" horiz-adv-x="825" 
d="M66 0v102q0 99 30.5 191t79 165t107.5 142t118 132.5t107.5 125t79 131.5t30.5 141q0 92 -56.5 150.5t-155.5 58.5q-96 0 -151 -62t-58 -181h-123q9 162 98.5 260t233.5 98q152 0 243.5 -92.5t91.5 -231.5q0 -83 -30.5 -162.5t-79.5 -146t-107.5 -131.5t-117.5 -130.5
t-108 -132t-79.5 -147.5t-30.5 -165h568v-115h-690z" />
    <glyph glyph-name="three" unicode="3" horiz-adv-x="833" 
d="M379 838q180 0 269 -94.5t89 -266.5v-102q0 -189 -94.5 -292t-253.5 -103q-157 0 -254.5 102.5t-97.5 298.5h123q6 -154 66 -218.5t161 -64.5q229 0 229 277v102q0 128 -65 191t-182 63h-129v103l305 487h-459v115h616v-88l-325 -510h2z" />
    <glyph glyph-name="four" unicode="4" horiz-adv-x="833" 
d="M829 502v-119h-174v-383h-123v383h-509v68l331 983h129l-315 -932h364v528h123v-528h174z" />
    <glyph glyph-name="five" unicode="5" horiz-adv-x="819" 
d="M438 956q143 0 225 -101t82 -286v-143q0 -446 -319 -446q-149 0 -236.5 94t-93.5 266h121q9 -242 209 -242q99 0 148 75.5t49 252.5v141q0 139 -48 206t-153 67q-76 0 -127 -42t-70 -114h-116v750h596v-115h-476v-445q82 82 209 82z" />
    <glyph glyph-name="six" unicode="6" horiz-adv-x="880" 
d="M467 942q134 0 231 -98t97 -254v-250q0 -163 -96 -261.5t-240 -98.5q-145 0 -242.5 98.5t-97.5 261.5v764q0 158 94.5 254t241.5 96q135 0 228 -94t103 -246h-122q-6 104 -65 162.5t-144 58.5q-94 0 -153.5 -61t-59.5 -168v-260q89 96 225 96zM672 340v250q0 109 -64 171
t-162 62q-90 0 -147 -62.5t-57 -174.5v-246q0 -115 61 -178.5t156 -63.5q93 0 153 63.5t60 178.5z" />
    <glyph glyph-name="seven" unicode="7" horiz-adv-x="720" 
d="M0 1436h659v-68l-395 -1372h-129l381 1321h-516v119z" />
    <glyph glyph-name="eight" unicode="8" horiz-adv-x="933" 
d="M643 739q89 -41 138.5 -130t49.5 -206v-34q0 -183 -96 -286t-268 -103t-268.5 103t-96.5 286v34q0 117 50 206t139 130q-77 42 -120.5 128t-43.5 194v24q0 173 90 271t250 98t250 -98t90 -271v-24q0 -108 -43.5 -194t-120.5 -128zM250 1085v-24q0 -125 57 -194.5
t160 -69.5t160 69.5t57 194.5v24q0 118 -57 184t-160 66t-160 -66t-57 -184zM709 369v34q0 129 -64 202t-178 73t-178 -73t-64 -202v-34q0 -128 64 -199.5t178 -71.5t178 71.5t64 199.5z" />
    <glyph glyph-name="nine" unicode="9" horiz-adv-x="880" 
d="M422 1454q145 0 242.5 -98.5t97.5 -261.5v-764q0 -158 -94.5 -254t-241.5 -96q-135 0 -228.5 93.5t-103.5 245.5h123q6 -104 65 -162.5t144 -58.5q94 0 153.5 61.5t59.5 168.5v260q-89 -96 -225 -96q-134 0 -231 98t-97 254v250q0 163 96 261.5t240 98.5zM434 610
q90 0 147.5 63t57.5 175v246q0 114 -61 177.5t-156 63.5q-93 0 -153 -63.5t-60 -177.5v-250q0 -109 64 -171.5t161 -62.5z" />
    <glyph glyph-name="colon" unicode=":" horiz-adv-x="358" 
d="M180 690q-43 0 -69.5 26.5t-26.5 69.5t26.5 70t69.5 27t69.5 -27t26.5 -70t-26.5 -69.5t-69.5 -26.5zM180 -20q-43 0 -69.5 26.5t-26.5 69.5t26.5 69.5t69.5 26.5t69.5 -26.5t26.5 -69.5t-26.5 -69.5t-69.5 -26.5z" />
    <glyph glyph-name="semicolon" unicode=";" horiz-adv-x="323" 
d="M166 690q-43 0 -69.5 26.5t-26.5 69.5t26.5 70t69.5 27t69.5 -27t26.5 -70t-26.5 -69.5t-69.5 -26.5zM104 160h138l-95 -426h-86z" />
    <glyph glyph-name="less" unicode="&#x3c;" horiz-adv-x="843" 
d="M750 985v-121l-527 -231l527 -232v-120l-656 284v135z" />
    <glyph glyph-name="equal" unicode="=" horiz-adv-x="905" 
d="M94 717v114h717v-114h-717zM94 412v114h717v-114h-717z" />
    <glyph glyph-name="greater" unicode="&#x3e;" horiz-adv-x="843" 
d="M94 985l656 -285v-135l-656 -284v120l527 232l-527 231v121z" />
    <glyph glyph-name="question" unicode="?" horiz-adv-x="765" 
d="M285 295v129q0 94 31 170.5t74.5 130.5t87.5 106t75 122.5t31 154.5q0 105 -60 168t-155 63t-155 -65t-60 -184h-123q6 167 100 265.5t238 98.5q148 0 243 -97.5t95 -248.5q0 -99 -31 -178.5t-74.5 -133.5t-87.5 -106t-75 -123t-31 -157v-115h-123zM350 -20
q-43 0 -69.5 26.5t-26.5 69.5t26.5 69.5t69.5 26.5t69.5 -26.5t26.5 -69.5t-26.5 -69.5t-69.5 -26.5z" />
    <glyph glyph-name="at" unicode="@" horiz-adv-x="1556" 
d="M797 1499q312 0 481.5 -171.5t169.5 -504.5v-221q0 -168 -78 -259t-203 -91q-147 -3 -204 104q-63 -123 -207 -123q-113 0 -184.5 79t-71.5 225v221q0 144 69 220.5t185 76.5q129 0 192 -97l12 78h93v-561q0 -57 27 -86.5t89 -30.5q83 0 126.5 61t43.5 183v221
q0 282 -140.5 426t-399.5 144q-273 0 -425.5 -157t-152.5 -437v-269q0 -291 152.5 -455.5t412.5 -164.5q271 0 416 119l55 -95q-170 -131 -469 -131q-314 0 -495.5 192.5t-181.5 534.5v269q0 330 182 515t506 185zM772 342q77 0 123.5 48.5t46.5 144.5v223q0 77 -45 133.5
t-131 56.5q-156 0 -156 -190v-221q0 -99 42.5 -147t119.5 -48z" />
    <glyph glyph-name="A" unicode="A" horiz-adv-x="937" 
d="M780 0l-84 336h-454l-84 -336h-135l376 1434h140l376 -1434h-135zM270 451h398l-148 593q-30 114 -49 226h-4q-19 -112 -49 -226z" />
    <glyph glyph-name="B" unicode="B" horiz-adv-x="1009" 
d="M688 743q116 -27 181 -118t65 -234q0 -190 -107.5 -290.5t-300.5 -100.5h-368v1434h336q180 0 280 -97.5t100 -275.5q0 -131 -49.5 -212.5t-136.5 -105.5zM494 1315h-209v-520h213q247 0 247 266q0 130 -61.5 192t-189.5 62zM526 119q141 0 210 66t69 206
q0 137 -81.5 211t-219.5 74h-219v-557h241z" />
    <glyph glyph-name="C" unicode="C" horiz-adv-x="983" 
d="M510 -25q-176 0 -283.5 114t-107.5 317v622q0 203 105 316.5t278 113.5q176 0 281.5 -108t115.5 -306h-123q-10 150 -80.5 224.5t-193.5 74.5q-120 0 -190 -80t-70 -235v-622q0 -155 72.5 -235.5t195.5 -80.5q248 0 278 299h123q-15 -197 -119.5 -305.5t-281.5 -108.5z
" />
    <glyph glyph-name="D" unicode="D" horiz-adv-x="1024" 
d="M158 0v1434h321q202 0 314 -110t112 -310v-596q0 -197 -113 -307.5t-313 -110.5h-321zM285 121h194q144 0 221.5 77t77.5 226v584q0 151 -76.5 228t-222.5 77h-194v-1192z" />
    <glyph glyph-name="E" unicode="E" horiz-adv-x="929" 
d="M285 117h563v-117h-690v1434h667v-117h-540v-531h506v-116h-506v-553z" />
    <glyph glyph-name="F" unicode="F" horiz-adv-x="860" 
d="M805 1317h-520v-551h485v-117h-485v-649h-127v1434h647v-117z" />
    <glyph glyph-name="G" unicode="G" horiz-adv-x="1015" 
d="M516 -20q-179 0 -288 114t-109 320v608q0 209 103.5 320.5t283.5 111.5q176 0 282 -107.5t113 -302.5h-123q-7 146 -78 218.5t-194 72.5q-126 0 -195 -78.5t-69 -236.5v-606q0 -156 74 -236t200 -80q127 0 202 76t75 219v256h-279v115h399v-371q0 -192 -109.5 -302.5
t-287.5 -110.5z" />
    <glyph glyph-name="H" unicode="H" horiz-adv-x="1079" 
d="M795 1434h127v-1434h-127v670h-510v-670h-127v1434h127v-646h510v646z" />
    <glyph glyph-name="I" unicode="I" horiz-adv-x="442" 
d="M158 1434h127v-1434h-127v1434z" />
    <glyph glyph-name="J" unicode="J" horiz-adv-x="507" 
d="M0 -166v121q118 0 174.5 64.5t56.5 220.5v1194h127v-1194q0 -406 -358 -406z" />
    <glyph glyph-name="K" unicode="K" horiz-adv-x="983" 
d="M831 0l-444 698l-102 -139v-559h-127v1434h127v-684l116 168l367 516h158l-457 -625l514 -809h-152z" />
    <glyph glyph-name="L" unicode="L" horiz-adv-x="825" 
d="M285 121h524v-121h-651v1434h127v-1313z" />
    <glyph glyph-name="M" unicode="M" horiz-adv-x="1335" 
d="M1042 1434h136v-1434h-127v758q0 214 12 405l-8 2q-21 -58 -75 -193t-73 -184l-176 -450h-127l-176 450q-15 40 -70.5 179t-76.5 198l-9 -2q13 -206 13 -405v-758h-127v1434h135l256 -619q46 -113 115 -319h8q75 221 114 319z" />
    <glyph glyph-name="N" unicode="N" horiz-adv-x="1105" 
d="M821 1434h127v-1434h-131l-391 842q-72 155 -145 348l-7 -2q11 -300 11 -385v-803h-127v1434h131l387 -836q77 -161 155 -354l7 2q-17 295 -17 413v775z" />
    <glyph glyph-name="O" unicode="O" horiz-adv-x="1060" 
d="M530 -27q-192 0 -301.5 126.5t-109.5 344.5v545q0 218 109.5 344.5t301.5 126.5q193 0 302.5 -126.5t109.5 -344.5v-545q0 -218 -109.5 -344.5t-302.5 -126.5zM530 96q138 0 210.5 90.5t72.5 257.5v545q0 167 -72.5 257.5t-210.5 90.5t-210 -90.5t-72 -257.5v-545
q0 -167 72 -257.5t210 -90.5z" />
    <glyph glyph-name="P" unicode="P" horiz-adv-x="983" 
d="M502 1434q197 0 303 -115t106 -326q0 -220 -105 -335t-304 -115h-217v-543h-127v1434h344zM502 664q145 0 213.5 79.5t68.5 249.5q0 161 -69 240.5t-213 79.5h-217v-649h217z" />
    <glyph glyph-name="Q" unicode="Q" horiz-adv-x="1062" 
d="M944 -47l-82 -72l-119 146q-91 -54 -213 -54q-192 0 -301.5 126.5t-109.5 344.5v545q0 218 109.5 344.5t301.5 126.5q193 0 302.5 -126.5t109.5 -344.5v-545q0 -223 -115 -350zM530 96q74 0 134 29l-146 176l82 72l148 -178q65 89 65 249v545q0 167 -72.5 257.5
t-210.5 90.5t-210 -90.5t-72 -257.5v-545q0 -167 72 -257.5t210 -90.5z" />
    <glyph glyph-name="R" unicode="R" horiz-adv-x="989" 
d="M784 0l-342 559h-157v-559h-127v1434h327q197 0 303.5 -110t106.5 -310q0 -186 -83 -302.5t-232 -144.5l352 -567h-148zM285 1315v-637h198q139 0 211 84.5t72 243.5q0 153 -71.5 231t-209.5 78h-200z" />
    <glyph glyph-name="S" unicode="S" horiz-adv-x="923" 
d="M465 -27q-178 0 -286 108.5t-113 287.5h127q4 -132 75 -202.5t193 -70.5q127 0 193.5 71.5t66.5 192.5q0 53 -21.5 99t-58.5 81.5t-84.5 68.5t-100.5 63.5t-105.5 62.5t-100 70t-84.5 80.5t-58.5 100t-21.5 124.5q0 150 103.5 250t267.5 100q166 0 266 -106.5t108 -278.5
h-126q-6 130 -71.5 196t-172.5 66q-116 0 -181 -61.5t-65 -165.5q0 -53 21.5 -98.5t58.5 -80.5t84.5 -67t100 -62t105.5 -61.5t100.5 -69.5t84.5 -81t58.5 -102t21.5 -128q0 -100 -42.5 -186.5t-132 -143.5t-210.5 -57z" />
    <glyph glyph-name="T" unicode="T" horiz-adv-x="831" 
d="M795 1434v-119h-316v-1315h-127v1315h-315v119h758z" />
    <glyph glyph-name="U" unicode="U" horiz-adv-x="1052" 
d="M526 -18q-177 0 -284 114.5t-107 327.5v1010h127v-1010q0 -160 71 -240t193 -80t193.5 80t71.5 240v1010h127v-1010q0 -212 -107.5 -327t-284.5 -115z" />
    <glyph glyph-name="V" unicode="V" horiz-adv-x="921" 
d="M387 0l-364 1434h135l215 -897q16 -68 43 -186.5t41 -176.5h8q14 58 41 176.5t43 186.5l215 897h135l-364 -1434h-148z" />
    <glyph glyph-name="W" unicode="W" horiz-adv-x="1458" 
d="M1303 1434h133l-318 -1434h-141l-174 780q-20 84 -41 222.5t-29 228.5h-8q-8 -90 -29 -228.5t-41 -222.5l-174 -780h-141l-317 1434h133l180 -885q70 -362 70 -365h8q3 14 29.5 157t43.5 228l172 842h140l172 -842q17 -85 43.5 -228t29.5 -157h9q3 19 69 365z" />
    <glyph glyph-name="X" unicode="X" horiz-adv-x="919" 
d="M881 0h-142l-278 625l-279 -625h-141l346 745l-328 689h142l260 -572l260 572h141l-327 -689z" />
    <glyph glyph-name="Y" unicode="Y" horiz-adv-x="864" 
d="M369 0v514l-359 920h135l205 -553q13 -37 40.5 -111t41.5 -111l82 224l205 551h135l-358 -920v-514h-127z" />
    <glyph glyph-name="Z" unicode="Z" horiz-adv-x="837" 
d="M190 119h584v-119h-733v96l569 1219h-542v119h696v-86z" />
    <glyph glyph-name="bracketleft" unicode="[" horiz-adv-x="563" 
d="M455 1565h-174v-1696h174v-115h-297v1925h297v-114z" />
    <glyph glyph-name="backslash" unicode="\" horiz-adv-x="978" 
d="M215 1659l670 -1895h-121l-670 1895h121z" />
    <glyph glyph-name="bracketright" unicode="]" horiz-adv-x="563" 
d="M109 -131h174v1696h-174v114h297v-1925h-297v115z" />
    <glyph glyph-name="asciicircum" unicode="^" horiz-adv-x="632" 
d="M602 979h-125l-160 346l-161 -346h-125l217 455h137z" />
    <glyph glyph-name="underscore" unicode="_" horiz-adv-x="831" 
d="M47 -18h737v-113h-737v113z" />
    <glyph glyph-name="a" unicode="a" horiz-adv-x="915" 
d="M451 1100q153 0 241 -96t88 -261v-743h-104l-10 100q-85 -125 -248 -125q-151 0 -245.5 88t-94.5 242q0 155 95.5 238.5t272.5 83.5h213v114q0 118 -54.5 180t-158.5 62q-93 0 -151 -50t-64 -138h-120q6 138 98.5 221.5t241.5 83.5zM436 94q102 0 162.5 58t60.5 151v211
h-217q-118 0 -179.5 -54t-61.5 -157t63.5 -156t171.5 -53z" />
    <glyph glyph-name="b" unicode="b" horiz-adv-x="946" 
d="M504 1100q158 0 246 -103.5t88 -300.5v-309q0 -198 -91.5 -305t-242.5 -107q-78 0 -144.5 32.5t-109.5 92.5l-17 -100h-98v1483h119v-504q43 60 109 90.5t141 30.5zM715 387v309q0 152 -59 221.5t-179 69.5q-101 0 -162 -80.5t-61 -210.5v-313q0 -144 62.5 -219.5
t160.5 -75.5q238 0 238 299z" />
    <glyph glyph-name="c" unicode="c" horiz-adv-x="884" 
d="M453 -20q-158 0 -251 100t-93 282v355q0 182 93 282.5t251 100.5q161 0 255.5 -100t98.5 -283h-123q-9 264 -231 264q-105 0 -163.5 -66t-58.5 -198v-355q0 -132 58.5 -198t163.5 -66q224 0 233 264h123q-4 -182 -99 -282t-257 -100z" />
    <glyph glyph-name="d" unicode="d" horiz-adv-x="946" 
d="M692 1483h119v-1483h-98l-17 100q-43 -60 -109.5 -92.5t-144.5 -32.5q-151 0 -242 106.5t-91 305.5v309q0 197 87.5 300.5t245.5 103.5q75 0 141 -30.5t109 -90.5v504zM469 88q98 0 160.5 75.5t62.5 219.5v313q0 130 -61 210.5t-162 80.5q-120 0 -179 -69.5t-59 -221.5
v-309q0 -299 238 -299z" />
    <glyph glyph-name="e" unicode="e" horiz-adv-x="921" 
d="M709 330h120q-12 -169 -108.5 -259.5t-265.5 -90.5q-159 0 -252.5 100t-93.5 282v355q0 182 94.5 282.5t253.5 100.5q164 0 261 -100.5t97 -282.5v-238h-584v-117q0 -132 60 -198t168 -66q117 0 177.5 56.5t72.5 175.5zM459 981q-108 0 -168 -66t-60 -198v-125h463v125
q0 132 -61 198t-174 66z" />
    <glyph glyph-name="f" unicode="f" horiz-adv-x="593" 
d="M514 1399q-201 0 -201 -234v-90h236v-110h-236v-965h-120v965h-164v110h164v90q0 164 83.5 254t237.5 90h57v-110h-57z" />
    <glyph glyph-name="g" unicode="g" horiz-adv-x="948" 
d="M713 1075h100v-1149q0 -145 -93.5 -233t-248.5 -88q-149 0 -241.5 84t-100.5 227h117q7 -96 66 -147.5t159 -51.5q103 0 162 55.5t59 153.5v209q-82 -102 -237 -102q-158 0 -252 101t-94 282v276q0 196 93 302t249 106q157 0 245 -133zM475 147q103 0 160 67.5t57 201.5
v297q0 133 -61 202.5t-156 69.5q-244 0 -244 -293v-276q0 -134 64 -201.5t180 -67.5z" />
    <glyph glyph-name="h" unicode="h" horiz-adv-x="946" 
d="M535 1100q288 0 288 -451v-649h-121v639q0 184 -47.5 265t-150.5 81q-114 0 -181 -89.5t-67 -246.5v-649h-121v1475h121v-535q92 160 279 160z" />
    <glyph glyph-name="i" unicode="i" horiz-adv-x="391" 
d="M195 1274q-44 0 -71.5 27t-27.5 71t27.5 71t71.5 27t71 -27t27 -71t-27 -71t-71 -27zM135 0v1075h121v-1075h-121z" />
    <glyph glyph-name="j" unicode="j" horiz-adv-x="477" 
d="M244 1272q-44 0 -71.5 27t-27.5 71t27.5 71t71.5 27t71 -27t27 -71t-27 -71t-71 -27zM-41 -393v117q122 3 172.5 65.5t50.5 190.5v1095h121v-1095q0 -176 -84.5 -274t-259.5 -99z" />
    <glyph glyph-name="k" unicode="k" horiz-adv-x="870" 
d="M725 0l-363 547l-106 -117v-430h-121v1483h121v-887l408 479h153l-373 -434l426 -641h-145z" />
    <glyph glyph-name="l" unicode="l" horiz-adv-x="403" 
d="M141 0v1481h121v-1481h-121z" />
    <glyph glyph-name="m" unicode="m" horiz-adv-x="1480" 
d="M1079 1100q129 0 204 -104.5t75 -311.5v-684h-121v674q0 164 -46.5 237.5t-137.5 73.5q-110 0 -178 -89.5t-68 -244.5v-651h-121v674q0 163 -48.5 237t-141.5 74q-109 0 -174.5 -89.5t-65.5 -244.5v-651h-121v1075h101l18 -139q85 164 268 164q192 0 258 -207
q39 97 113.5 152t185.5 55z" />
    <glyph glyph-name="n" unicode="n" horiz-adv-x="946" 
d="M535 1100q288 0 288 -412v-688h-121v670q0 164 -46.5 239.5t-151.5 75.5q-113 0 -180.5 -89.5t-67.5 -244.5v-651h-121v1075h101l20 -133q91 158 279 158z" />
    <glyph glyph-name="o" unicode="o" horiz-adv-x="933" 
d="M467 -25q-164 0 -261 102t-97 288v346q0 186 97 287.5t261 101.5t261 -101.5t97 -287.5v-346q0 -186 -97 -288t-261 -102zM467 94q112 0 173.5 67.5t61.5 203.5v346q0 136 -61.5 203t-173.5 67t-174 -67t-62 -203v-346q0 -136 62 -203.5t174 -67.5z" />
    <glyph glyph-name="p" unicode="p" horiz-adv-x="946" 
d="M504 1100q151 0 242.5 -107t91.5 -305v-309q0 -197 -88 -300.5t-246 -103.5q-75 0 -141 30.5t-109 90.5v-465h-119v1444h98l17 -100q43 60 109.5 92.5t144.5 32.5zM715 379v309q0 299 -238 299q-98 0 -160.5 -75.5t-62.5 -219.5v-313q0 -130 61 -210.5t162 -80.5
q120 0 179 69.5t59 221.5z" />
    <glyph glyph-name="q" unicode="q" horiz-adv-x="946" 
d="M713 1075h98v-1444h-119v465q-43 -60 -109 -90.5t-141 -30.5q-158 0 -245.5 103.5t-87.5 300.5v309q0 199 91 305.5t242 106.5q78 0 144.5 -32.5t109.5 -92.5zM469 88q101 0 162 80.5t61 210.5v313q0 144 -62.5 219.5t-160.5 75.5q-238 0 -238 -299v-309
q0 -152 59 -221.5t179 -69.5z" />
    <glyph glyph-name="r" unicode="r" horiz-adv-x="677" 
d="M537 1098q63 0 108 -11v-131q-64 23 -135 23q-116 0 -185 -87.5t-69 -240.5v-651h-121v1075h101l20 -135v-2q92 160 281 160z" />
    <glyph glyph-name="s" unicode="s" horiz-adv-x="823" 
d="M420 -25q-160 0 -258.5 94.5t-98.5 249.5h121q0 -106 63 -165.5t173 -59.5q100 0 155.5 48t55.5 134q0 53 -30.5 92.5t-79.5 64.5t-107.5 47t-117.5 48.5t-108 60.5t-79.5 90.5t-30.5 131.5q0 131 88.5 210t234.5 79q151 0 242.5 -90.5t91.5 -239.5h-121q0 100 -56 156.5
t-157 56.5q-95 0 -147.5 -46.5t-52.5 -129.5q0 -45 24 -80t62.5 -56.5t88.5 -43.5t101.5 -40t101.5 -46t88.5 -61t62.5 -86.5t24 -121.5q0 -134 -91.5 -215.5t-242.5 -81.5z" />
    <glyph glyph-name="t" unicode="t" horiz-adv-x="608" 
d="M506 104h61v-114h-61q-147 0 -226 86.5t-79 242.5v644h-164v112h164v248h121v-248h221v-112h-221v-644q0 -215 184 -215z" />
    <glyph glyph-name="u" unicode="u" horiz-adv-x="946" 
d="M690 1075h121v-1075h-100l-21 133q-91 -158 -278 -158q-137 0 -213 99.5t-76 312.5v688h121v-669q0 -164 46.5 -240t151.5 -76q113 0 180.5 89.5t67.5 244.5v651z" />
    <glyph glyph-name="v" unicode="v" horiz-adv-x="774" 
d="M631 1075h127l-305 -1075h-131l-306 1075h127l170 -629q18 -69 70 -288h8q52 219 70 288z" />
    <glyph glyph-name="w" unicode="w" horiz-adv-x="1245" 
d="M1102 1075h127l-266 -1075h-134l-131 535q-57 228 -73 364h-4q-15 -129 -74 -364l-131 -535h-133l-267 1075h127l133 -586q9 -37 70 -337h4q35 201 78 378l129 525h131l129 -525q43 -177 78 -378h4q61 300 70 337z" />
    <glyph glyph-name="x" unicode="x" horiz-adv-x="778" 
d="M768 0h-141l-238 438l-237 -438h-142l309 537l-294 538h137l227 -422l227 422h138l-293 -538z" />
    <glyph glyph-name="y" unicode="y" horiz-adv-x="792" 
d="M649 1075h127l-362 -1206q-39 -131 -95.5 -195.5t-160.5 -64.5h-70v119h53q64 0 96 40t56 119l67 222l-344 966h129l269 -784z" />
    <glyph glyph-name="z" unicode="z" horiz-adv-x="731" 
d="M178 113h500v-113h-645v98l483 865h-461v112h607v-96z" />
    <glyph glyph-name="braceleft" unicode="{" horiz-adv-x="690" 
d="M397 991q0 -87 -37.5 -156t-103.5 -110q66 -41 103.5 -110t37.5 -156v-377q0 -94 53.5 -153.5t131.5 -59.5v-115q-127 0 -215 93.5t-88 234.5v377q0 86 -48.5 137t-121.5 68v122q73 17 121.5 68t48.5 137v361q0 141 88 234t215 93v-114q-78 0 -131.5 -59.5t-53.5 -153.5
v-361z" />
    <glyph glyph-name="bar" unicode="|" horiz-adv-x="399" 
d="M141 1628h117v-1802h-117v1802z" />
    <glyph glyph-name="braceright" unicode="}" horiz-adv-x="690" 
d="M412 977q0 -86 48.5 -137t121.5 -68v-123q-73 -17 -121.5 -68t-48.5 -137v-360q0 -141 -88 -234.5t-215 -93.5v115q78 0 131 59.5t53 153.5v360q0 88 37.5 157t103.5 110q-66 41 -103.5 110t-37.5 156v377q0 94 -53 153.5t-131 59.5v114q127 0 215 -93t88 -234v-377z" />
    <glyph glyph-name="asciitilde" unicode="~" horiz-adv-x="942" 
d="M772 702l66 -86q-78 -110 -189 -110q-65 0 -186 49t-166 49q-78 0 -131 -76l-64 93q80 104 187 104q65 0 186 -49t166 -49q79 0 131 75z" />
    <glyph glyph-name="exclamdown" unicode="&#xa1;" horiz-adv-x="450" 
d="M225 1096q43 0 70 -27t27 -70t-27 -69.5t-70 -26.5t-69.5 26.5t-26.5 69.5t26.5 70t69.5 27zM164 780h123v-1149h-123v1149z" />
    <glyph glyph-name="cent" unicode="&#xa2;" horiz-adv-x="872" 
d="M449 98q107 0 166 66t59 198h123q0 -166 -80 -265.5t-219 -114.5v-134h-109v136q-131 19 -205.5 117t-74.5 261v345q0 163 74.5 261t205.5 117v136h109v-134q139 -15 219 -114.5t80 -265.5h-123q0 132 -59 198t-166 66q-104 0 -161 -66t-57 -198v-345q0 -132 57 -198
t161 -66z" />
    <glyph glyph-name="sterling" unicode="&#xa3;" horiz-adv-x="964" 
d="M258 123h635v-123h-827v106q139 55 139 234v328h-144v114h144v279q0 179 91.5 286t242.5 107q153 0 246.5 -106.5t99.5 -292.5h-123q-6 138 -64.5 211t-158.5 73q-98 0 -154.5 -73.5t-56.5 -204.5v-279h387v-114h-387v-316q0 -146 -70 -229z" />
    <glyph glyph-name="currency" unicode="&#xa4;" horiz-adv-x="970" 
d="M162 223l-78 68l106 127q-43 75 -43 190v123q0 116 43 191l-106 127l78 67l92 -108q40 37 103.5 59.5t127.5 22.5q63 0 127 -22.5t105 -59.5l92 108l78 -67l-107 -125q43 -75 43 -193v-123q0 -117 -43 -192l107 -125l-78 -68l-92 109q-41 -37 -105 -59.5t-127 -22.5
q-64 0 -127.5 22.5t-103.5 59.5zM485 360q103 0 161.5 65.5t58.5 182.5v123q0 117 -58.5 182.5t-161.5 65.5t-161 -65.5t-58 -182.5v-123q0 -117 58 -182.5t161 -65.5z" />
    <glyph glyph-name="yen" unicode="&#xa5;" horiz-adv-x="864" 
d="M854 1434l-322 -826h279v-98h-315v-125h315v-98h-315v-287h-127v287h-316v98h316v125h-316v98h279l-322 826h135l205 -553q13 -37 40.5 -111t41.5 -111l82 224l205 551h135z" />
    <glyph glyph-name="brokenbar" unicode="&#xa6;" horiz-adv-x="358" 
d="M121 1038v590h117v-590h-117zM121 -133v590h117v-590h-117z" />
    <glyph glyph-name="section" unicode="&#xa7;" horiz-adv-x="841" 
d="M592 432q145 -88 145 -244q0 -132 -88 -212t-233 -80q-154 0 -248 93t-94 247h121q0 -104 58.5 -163t162.5 -59q94 0 146 46.5t52 129.5q0 46 -23.5 83t-62 60.5t-88 47.5t-100.5 43t-100.5 47.5t-88 61t-62 83t-23.5 113.5q0 97 50.5 165.5t139.5 96.5q-152 90 -152 242
q0 124 86.5 200t223.5 76q145 0 230 -86.5t85 -232.5h-121q0 96 -49.5 149.5t-142.5 53.5q-88 0 -138.5 -44t-50.5 -116q0 -47 30 -84.5t77.5 -63.5t105 -51t115.5 -54.5t105.5 -65t77.5 -91.5t30 -127q0 -186 -176 -264zM188 735q0 -73 64 -125.5t201 -99.5
q91 6 141.5 53.5t50.5 116.5q0 44 -18 80t-54 64.5t-73 48t-92 42.5q-90 3 -155 -45t-65 -135z" />
    <glyph glyph-name="copyright" unicode="&#xa9;" horiz-adv-x="1470" 
d="M737 -25q-292 0 -455 172.5t-163 483.5v184q0 305 163 474t455 169q291 0 453 -169t162 -474v-184q0 -311 -162 -483.5t-453 -172.5zM737 70q247 0 381.5 146.5t134.5 414.5v184q0 263 -134.5 406t-381.5 143q-250 0 -385 -143t-135 -406v-184q0 -268 135 -414.5
t385 -146.5zM733 297q-121 0 -193.5 77t-72.5 212v262q0 135 72 211t194 76q120 0 192 -76t72 -211h-104q0 91 -43 137.5t-117 46.5q-76 0 -118 -46t-42 -138v-262q0 -92 42.5 -138.5t117.5 -46.5q76 0 120 47t44 138h107q0 -134 -74.5 -211.5t-196.5 -77.5z" />
    <glyph glyph-name="guillemotleft" unicode="&#xab;" horiz-adv-x="888" 
d="M344 182l-250 314v61l250 313h123l-272 -344l272 -344h-123zM672 182l-250 314v61l250 313h123l-273 -344l273 -344h-123z" />
    <glyph glyph-name="logicalnot" unicode="&#xac;" horiz-adv-x="942" 
d="M840 688v-282h-111v167h-616v115h727z" />
    <glyph glyph-name="registered" unicode="&#xae;" horiz-adv-x="952" 
d="M483 1458q167 0 262 -99t95 -274v-110q0 -181 -94.5 -282t-262.5 -101q-169 0 -263.5 101t-94.5 282v110q0 175 94.5 274t263.5 99zM782 975v110q0 149 -79 232.5t-220 83.5t-221 -83.5t-80 -232.5v-110q0 -153 80 -239.5t221 -86.5t220 86t79 240zM647 1126
q0 -132 -112 -157l122 -207h-69l-117 203h-53v-203h-62v520h133q75 0 116.5 -41t41.5 -115zM418 1221v-195h71q46 0 71.5 25.5t25.5 74.5q0 46 -25.5 70.5t-71.5 24.5h-71z" />
    <glyph glyph-name="degree" unicode="&#xb0;" horiz-adv-x="647" 
d="M70 1198q0 117 70 188.5t184 71.5t184 -71.5t70 -188.5t-70 -188.5t-184 -71.5t-184 71.5t-70 188.5zM164 1198q0 -75 44 -121.5t116 -46.5t115.5 46.5t43.5 121.5t-43.5 121.5t-115.5 46.5t-116 -46.5t-44 -121.5z" />
    <glyph glyph-name="plusminus" unicode="&#xb1;" horiz-adv-x="942" 
d="M528 764h301v-115h-301v-307h-114v307h-301v115h301v307h114v-307zM113 139v115h716v-115h-716z" />
    <glyph glyph-name="paragraph" unicode="&#xb6;" horiz-adv-x="1167" 
d="M1010 1434v-1627h-125v1508h-326v-1508h-125v992q-146 0 -235.5 85.5t-89.5 231.5t89.5 232t235.5 86h576z" />
    <glyph glyph-name="periodcentered" unicode="&#xb7;" horiz-adv-x="372" 
d="M186 432q-43 0 -69.5 26.5t-26.5 69.5t26.5 70t69.5 27t70 -27t27 -70t-27 -69.5t-70 -26.5z" />
    <glyph glyph-name="guillemotright" unicode="&#xbb;" horiz-adv-x="888" 
d="M217 182h-123l273 344l-273 344h123l250 -313v-61zM545 182h-123l272 344l-272 344h123l250 -313v-61z" />
    <glyph glyph-name="questiondown" unicode="&#xbf;" horiz-adv-x="765" 
d="M416 1098q43 0 69.5 -27t26.5 -70t-26.5 -69.5t-69.5 -26.5t-70 26.5t-27 69.5t27 70t70 27zM481 782v-129q0 -94 -31 -170.5t-74.5 -130.5t-87.5 -106t-75 -122.5t-31 -154.5q0 -105 60 -168t155 -63q94 0 154.5 65.5t60.5 184.5h123q-6 -167 -100 -266t-238 -99
q-148 0 -243 97.5t-95 248.5q0 73 16.5 135t43 106.5t58 85t63.5 79t58.5 79.5t43 95.5t16.5 118.5v114h123z" />
    <glyph glyph-name="Agrave" unicode="&#xc0;" horiz-adv-x="937" 
d="M551 1575h-121l-215 231h147zM780 0l-84 336h-454l-84 -336h-135l376 1434h140l376 -1434h-135zM270 451h398l-148 593q-30 114 -49 226h-4q-19 -112 -49 -226z" />
    <glyph glyph-name="Aacute" unicode="&#xc1;" horiz-adv-x="937" 
d="M702 1806l-215 -231h-120l188 231h147zM780 0l-84 336h-454l-84 -336h-135l376 1434h140l376 -1434h-135zM270 451h398l-148 593q-30 114 -49 226h-4q-19 -112 -49 -226z" />
    <glyph glyph-name="Acircumflex" unicode="&#xc2;" horiz-adv-x="937" 
d="M465 1718l-117 -143h-115l166 231h131l166 -231h-114zM780 0l-84 336h-454l-84 -336h-135l376 1434h140l376 -1434h-135zM270 451h398l-148 593q-30 114 -49 226h-4q-19 -112 -49 -226z" />
    <glyph glyph-name="Atilde" unicode="&#xc3;" horiz-adv-x="937" 
d="M393 1694q-33 0 -39 -60h-110q3 74 40.5 117t98.5 43q36 0 67 -16.5t53.5 -32.5t39.5 -16q41 0 47 59h102q-8 -75 -44 -117.5t-95 -42.5q-35 0 -65.5 16.5t-53.5 33t-41 16.5zM780 0l-84 336h-454l-84 -336h-135l376 1434h140l376 -1434h-135zM270 451h398l-148 593
q-30 114 -49 226h-4q-19 -112 -49 -226z" />
    <glyph glyph-name="Adieresis" unicode="&#xc4;" horiz-adv-x="937" 
d="M332 1614q-37 0 -59.5 21.5t-22.5 58.5t22.5 58.5t59.5 21.5q36 0 58 -22t22 -58t-22 -58t-58 -22zM598 1614q-37 0 -60.5 22t-23.5 58t23.5 58t60.5 22t59.5 -21.5t22.5 -58.5t-22.5 -58.5t-59.5 -21.5zM780 0l-84 336h-454l-84 -336h-135l376 1434h140l376 -1434h-135z
M270 451h398l-148 593q-30 114 -49 226h-4q-19 -112 -49 -226z" />
    <glyph glyph-name="Aring" unicode="&#xc5;" horiz-adv-x="937" 
d="M465 1565q-64 0 -103.5 39t-39.5 102q0 62 39.5 99.5t103.5 37.5t103.5 -37.5t39.5 -99.5q0 -63 -39.5 -102t-103.5 -39zM465 1767q-29 0 -46.5 -17.5t-17.5 -45.5q0 -29 17.5 -46.5t46.5 -17.5q28 0 45.5 17.5t17.5 46.5q0 28 -17.5 45.5t-45.5 17.5zM780 0l-84 336
h-454l-84 -336h-135l376 1434h140l376 -1434h-135zM270 451h398l-148 593q-30 114 -49 226h-4q-19 -112 -49 -226z" />
    <glyph glyph-name="AE" unicode="&#xc6;" horiz-adv-x="1433" 
d="M815 117h537v-117h-664v377h-383l-162 -377h-143l633 1434h696v-117h-514v-531h479v-116h-479v-553zM352 492h336v802h-2l-84 -219z" />
    <glyph glyph-name="Ccedilla" unicode="&#xc7;" horiz-adv-x="983" 
d="M911 389q-13 -186 -108.5 -293.5t-255.5 -118.5l-25 -79q8 2 29 2q59 0 102 -39t43 -99q0 -75 -52 -118t-136 -43q-74 0 -124 39.5t-56 109.5h100q6 -27 28.5 -42t55.5 -15q38 0 62 18.5t24 52.5q0 70 -80 70q-38 0 -63 -14l-35 33l39 124q-156 18 -248 129.5t-92 299.5
v622q0 203 105 316.5t278 113.5q176 0 281.5 -108t115.5 -306h-123q-10 150 -80.5 224.5t-193.5 74.5q-120 0 -190 -80t-70 -235v-622q0 -155 72.5 -235.5t195.5 -80.5q248 0 278 299h123z" />
    <glyph glyph-name="Egrave" unicode="&#xc8;" horiz-adv-x="929" 
d="M582 1575h-121l-215 231h147zM285 117h563v-117h-690v1434h667v-117h-540v-531h506v-116h-506v-553z" />
    <glyph glyph-name="Eacute" unicode="&#xc9;" horiz-adv-x="929" 
d="M668 1806l-215 -231h-121l188 231h148zM285 117h563v-117h-690v1434h667v-117h-540v-531h506v-116h-506v-553z" />
    <glyph glyph-name="Ecircumflex" unicode="&#xca;" horiz-adv-x="929" 
d="M496 1718l-117 -143h-115l166 231h131l166 -231h-115zM285 117h563v-117h-690v1434h667v-117h-540v-531h506v-116h-506v-553z" />
    <glyph glyph-name="Edieresis" unicode="&#xcb;" horiz-adv-x="929" 
d="M362 1614q-37 0 -59 21.5t-22 58.5t22 58.5t59 21.5q36 0 58 -22t22 -58t-22 -58t-58 -22zM629 1614q-37 0 -60.5 22t-23.5 58t23.5 58t60.5 22t59.5 -21.5t22.5 -58.5t-22.5 -58.5t-59.5 -21.5zM285 117h563v-117h-690v1434h667v-117h-540v-531h506v-116h-506v-553z" />
    <glyph glyph-name="Igrave" unicode="&#xcc;" horiz-adv-x="442" 
d="M311 1575h-121l-215 231h148zM158 1434h127v-1434h-127v1434z" />
    <glyph glyph-name="Iacute" unicode="&#xcd;" horiz-adv-x="442" 
d="M127 1575l188 231h148l-215 -231h-121zM158 1434h127v-1434h-127v1434z" />
    <glyph glyph-name="Icircumflex" unicode="&#xce;" horiz-adv-x="442" 
d="M291 1806l166 -231h-115l-117 143l-116 -143h-115l166 231h131zM158 0v1434h127v-1434h-127z" />
    <glyph glyph-name="Idieresis" unicode="&#xcf;" horiz-adv-x="475" 
d="M123 1614q-37 0 -59.5 21.5t-22.5 58.5t22.5 58.5t59.5 21.5q36 0 58 -22t22 -58t-22 -58t-58 -22zM352 1614q-37 0 -60.5 22t-23.5 58t23.5 58t60.5 22t59.5 -21.5t22.5 -58.5t-22.5 -58.5t-59.5 -21.5zM170 1434h127v-1434h-127v1434z" />
    <glyph glyph-name="Eth" unicode="&#xd0;" horiz-adv-x="1052" 
d="M508 1434q202 0 314 -110t112 -310v-596q0 -197 -113 -307.5t-313 -110.5h-322v670h-161v112h161v652h322zM807 424v584q0 151 -76.5 228t-222.5 77h-195v-531h203v-112h-203v-549h195q144 0 221.5 77t77.5 226z" />
    <glyph glyph-name="Ntilde" unicode="&#xd1;" horiz-adv-x="1105" 
d="M481 1694q-33 0 -39 -60h-110q3 74 40.5 117t98.5 43q36 0 67 -16.5t53.5 -32.5t39.5 -16q41 0 47 59h102q-8 -75 -44 -117.5t-95 -42.5q-35 0 -65.5 16.5t-53.5 33t-41 16.5zM821 1434h127v-1434h-131l-391 842q-72 155 -145 348l-7 -2q11 -300 11 -385v-803h-127v1434
h131l387 -836q77 -161 155 -354l7 2q-17 295 -17 413v775z" />
    <glyph glyph-name="Ograve" unicode="&#xd2;" horiz-adv-x="1060" 
d="M616 1575h-120l-215 231h147zM530 -27q-192 0 -301.5 126.5t-109.5 344.5v545q0 218 109.5 344.5t301.5 126.5q193 0 302.5 -126.5t109.5 -344.5v-545q0 -218 -109.5 -344.5t-302.5 -126.5zM530 96q138 0 210.5 90.5t72.5 257.5v545q0 167 -72.5 257.5t-210.5 90.5
t-210 -90.5t-72 -257.5v-545q0 -167 72 -257.5t210 -90.5z" />
    <glyph glyph-name="Oacute" unicode="&#xd3;" horiz-adv-x="1060" 
d="M432 1575l189 231h147l-215 -231h-121zM530 -27q-192 0 -301.5 126.5t-109.5 344.5v545q0 218 109.5 344.5t301.5 126.5q193 0 302.5 -126.5t109.5 -344.5v-545q0 -218 -109.5 -344.5t-302.5 -126.5zM530 96q138 0 210.5 90.5t72.5 257.5v545q0 167 -72.5 257.5
t-210.5 90.5t-210 -90.5t-72 -257.5v-545q0 -167 72 -257.5t210 -90.5z" />
    <glyph glyph-name="Ocircumflex" unicode="&#xd4;" horiz-adv-x="1060" 
d="M530 1718l-116 -143h-115l166 231h131l166 -231h-115zM530 1460q193 0 302.5 -126.5t109.5 -344.5v-545q0 -218 -109.5 -344.5t-302.5 -126.5q-192 0 -301.5 126.5t-109.5 344.5v545q0 218 109.5 344.5t301.5 126.5zM813 444v545q0 167 -72.5 257.5t-210.5 90.5
t-210 -90.5t-72 -257.5v-545q0 -167 72 -257.5t210 -90.5t210.5 90.5t72.5 257.5z" />
    <glyph glyph-name="Otilde" unicode="&#xd5;" horiz-adv-x="1060" 
d="M459 1694q-33 0 -39 -60h-111q3 74 41 117t99 43q36 0 66.5 -16.5t53 -32.5t39.5 -16q41 0 47 59h103q-8 -75 -44.5 -117.5t-95.5 -42.5q-35 0 -65 16.5t-53 33t-41 16.5zM530 -27q-192 0 -301.5 126.5t-109.5 344.5v545q0 218 109.5 344.5t301.5 126.5
q193 0 302.5 -126.5t109.5 -344.5v-545q0 -218 -109.5 -344.5t-302.5 -126.5zM530 96q138 0 210.5 90.5t72.5 257.5v545q0 167 -72.5 257.5t-210.5 90.5t-210 -90.5t-72 -257.5v-545q0 -167 72 -257.5t210 -90.5z" />
    <glyph glyph-name="Odieresis" unicode="&#xd6;" horiz-adv-x="1060" 
d="M397 1614q-37 0 -59.5 21.5t-22.5 58.5t22.5 58.5t59.5 21.5q36 0 58 -22t22 -58t-22 -58t-58 -22zM664 1614q-37 0 -60.5 22t-23.5 58t23.5 58t60.5 22t59 -21.5t22 -58.5t-22 -58.5t-59 -21.5zM530 -27q-192 0 -301.5 126.5t-109.5 344.5v545q0 218 109.5 344.5
t301.5 126.5q193 0 302.5 -126.5t109.5 -344.5v-545q0 -218 -109.5 -344.5t-302.5 -126.5zM530 96q138 0 210.5 90.5t72.5 257.5v545q0 167 -72.5 257.5t-210.5 90.5t-210 -90.5t-72 -257.5v-545q0 -167 72 -257.5t210 -90.5z" />
    <glyph glyph-name="multiply" unicode="&#xd7;" horiz-adv-x="919" 
d="M168 244l-82 82l293 290l-291 291l78 84l295 -293l293 291l80 -82l-291 -291l291 -290l-80 -82l-293 293z" />
    <glyph glyph-name="Oslash" unicode="&#xd8;" horiz-adv-x="1048" 
d="M795 1360q135 -126 135 -373v-541q0 -218 -108 -344.5t-298 -126.5q-79 0 -149 25l-37 -123h-121l55 180q-153 125 -153 389v541q0 218 107.5 344.5t297.5 126.5q98 0 168 -33l41 131h121zM248 446q0 -163 67 -251l340 1112q-58 28 -131 28q-135 0 -205.5 -90.5
t-70.5 -257.5v-541zM801 446v541q0 147 -51 230l-338 -1098q49 -21 112 -21q135 0 206 90.5t71 257.5z" />
    <glyph glyph-name="Ugrave" unicode="&#xd9;" horiz-adv-x="1052" 
d="M612 1575h-120l-216 231h148zM526 -18q-177 0 -284 114.5t-107 327.5v1010h127v-1010q0 -160 71 -240t193 -80t193.5 80t71.5 240v1010h127v-1010q0 -212 -107.5 -327t-284.5 -115z" />
    <glyph glyph-name="Uacute" unicode="&#xda;" horiz-adv-x="1052" 
d="M428 1575l188 231h148l-215 -231h-121zM526 -18q-177 0 -284 114.5t-107 327.5v1010h127v-1010q0 -160 71 -240t193 -80t193.5 80t71.5 240v1010h127v-1010q0 -212 -107.5 -327t-284.5 -115z" />
    <glyph glyph-name="Ucircumflex" unicode="&#xdb;" horiz-adv-x="1052" 
d="M526 1718l-116 -143h-115l166 231h131l166 -231h-115zM791 1434h127v-1010q0 -212 -107.5 -327t-284.5 -115t-284 114.5t-107 327.5v1010h127v-1010q0 -160 71 -240t193 -80t193.5 80t71.5 240v1010z" />
    <glyph glyph-name="Udieresis" unicode="&#xdc;" horiz-adv-x="1052" 
d="M393 1614q-37 0 -59.5 21.5t-22.5 58.5t22.5 58.5t59.5 21.5q36 0 58 -22t22 -58t-22 -58t-58 -22zM659 1614q-37 0 -60.5 22t-23.5 58t23.5 58t60.5 22t59.5 -21.5t22.5 -58.5t-22.5 -58.5t-59.5 -21.5zM526 -18q-177 0 -284 114.5t-107 327.5v1010h127v-1010
q0 -160 71 -240t193 -80t193.5 80t71.5 240v1010h127v-1010q0 -212 -107.5 -327t-284.5 -115z" />
    <glyph glyph-name="Yacute" unicode="&#xdd;" horiz-adv-x="864" 
d="M334 1575l188 231h148l-215 -231h-121zM369 0v514l-359 920h135l205 -553q13 -37 40.5 -111t41.5 -111l82 224l205 551h135l-358 -920v-514h-127z" />
    <glyph glyph-name="Thorn" unicode="&#xde;" horiz-adv-x="958" 
d="M502 1184q197 0 303 -115t106 -326q0 -220 -105 -335t-304 -115h-217v-293h-127v1434h127v-250h217zM502 414q145 0 213.5 79.5t68.5 249.5q0 161 -69 240.5t-213 79.5h-217v-649h217z" />
    <glyph glyph-name="germandbls" unicode="&#xdf;" horiz-adv-x="946" 
d="M645 750q105 -27 166 -119.5t61 -239.5q0 -189 -100 -290t-280 -101h-132v121h132q128 0 189.5 66t61.5 208q0 146 -62.5 216.5t-188.5 70.5h-132v119h97q227 0 227 270t-217 270q-109 0 -159 -70.5t-50 -217.5v-1053h-123v1053q0 192 86.5 298.5t247.5 106.5
q162 0 251 -104.5t89 -284.5q0 -130 -44 -212.5t-120 -106.5z" />
    <glyph glyph-name="agrave" unicode="&#xe0;" horiz-adv-x="915" 
d="M545 1249h-119l-178 232h143zM451 1100q153 0 241 -96t88 -261v-743h-104l-10 100q-85 -125 -248 -125q-151 0 -245.5 88t-94.5 242q0 155 95.5 238.5t272.5 83.5h213v114q0 118 -54.5 180t-158.5 62q-93 0 -151 -50t-64 -138h-120q6 138 98.5 221.5t241.5 83.5zM436 94
q102 0 162.5 58t60.5 151v211h-217q-118 0 -179.5 -54t-61.5 -157t63.5 -156t171.5 -53z" />
    <glyph glyph-name="aacute" unicode="&#xe1;" horiz-adv-x="915" 
d="M635 1481l-178 -232h-119l154 232h143zM451 1100q153 0 241 -96t88 -261v-743h-104l-10 100q-85 -125 -248 -125q-151 0 -245.5 88t-94.5 242q0 155 95.5 238.5t272.5 83.5h213v114q0 118 -54.5 180t-158.5 62q-93 0 -151 -50t-64 -138h-120q6 138 98.5 221.5t241.5 83.5
zM436 94q102 0 162.5 58t60.5 151v211h-217q-118 0 -179.5 -54t-61.5 -157t63.5 -156t171.5 -53z" />
    <glyph glyph-name="acircumflex" unicode="&#xe2;" horiz-adv-x="915" 
d="M446 1391l-116 -144h-115l166 232h131l166 -232h-115zM451 1100q153 0 241 -96t88 -261v-743h-104l-10 100q-85 -125 -248 -125q-151 0 -245.5 88t-94.5 242q0 155 95.5 238.5t272.5 83.5h213v114q0 118 -54.5 180t-158.5 62q-93 0 -151 -50t-64 -138h-120
q6 138 98.5 221.5t241.5 83.5zM436 94q102 0 162.5 58t60.5 151v211h-217q-118 0 -179.5 -54t-61.5 -157t63.5 -156t171.5 -53z" />
    <glyph glyph-name="atilde" unicode="&#xe3;" horiz-adv-x="915" 
d="M371 1346q-33 0 -39 -60h-111q3 74 40.5 117t98.5 43q36 0 67 -16.5t53.5 -33t39.5 -16.5q41 0 47 60h103q-8 -75 -44.5 -117.5t-95.5 -42.5q-35 0 -65 16.5t-53 33t-41 16.5zM451 1100q153 0 241 -96t88 -261v-743h-104l-10 100q-85 -125 -248 -125q-151 0 -245.5 88
t-94.5 242q0 155 95.5 238.5t272.5 83.5h213v114q0 118 -54.5 180t-158.5 62q-93 0 -151 -50t-64 -138h-120q6 138 98.5 221.5t241.5 83.5zM436 94q102 0 162.5 58t60.5 151v211h-217q-118 0 -179.5 -54t-61.5 -157t63.5 -156t171.5 -53z" />
    <glyph glyph-name="adieresis" unicode="&#xe4;" horiz-adv-x="915" 
d="M326 1292q-37 0 -59.5 21.5t-22.5 58.5t22.5 58.5t59.5 21.5q36 0 58 -22t22 -58t-22 -58t-58 -22zM567 1292q-37 0 -60.5 22t-23.5 58t23.5 58t60.5 22t59.5 -21.5t22.5 -58.5t-22.5 -58.5t-59.5 -21.5zM451 1100q153 0 241 -96t88 -261v-743h-104l-10 100
q-85 -125 -248 -125q-151 0 -245.5 88t-94.5 242q0 155 95.5 238.5t272.5 83.5h213v114q0 118 -54.5 180t-158.5 62q-93 0 -151 -50t-64 -138h-120q6 138 98.5 221.5t241.5 83.5zM436 94q102 0 162.5 58t60.5 151v211h-217q-118 0 -179.5 -54t-61.5 -157t63.5 -156
t171.5 -53z" />
    <glyph glyph-name="aring" unicode="&#xe5;" horiz-adv-x="915" 
d="M446 1241q-64 0 -103.5 39t-39.5 102q0 62 39.5 100t103.5 38t104 -38t40 -100q0 -63 -40 -102t-104 -39zM446 1444q-29 0 -46 -18t-17 -46q0 -29 17 -46t46 -17q28 0 46 17t18 46q0 28 -18 46t-46 18zM451 1100q153 0 241 -96t88 -261v-743h-104l-10 100
q-85 -125 -248 -125q-151 0 -245.5 88t-94.5 242q0 155 95.5 238.5t272.5 83.5h213v114q0 118 -54.5 180t-158.5 62q-93 0 -151 -50t-64 -138h-120q6 138 98.5 221.5t241.5 83.5zM436 94q102 0 162.5 58t60.5 151v211h-217q-118 0 -179.5 -54t-61.5 -157t63.5 -156
t171.5 -53z" />
    <glyph glyph-name="ae" unicode="&#xe6;" horiz-adv-x="1404" 
d="M1192 350h121q0 -176 -92 -273t-248 -97q-92 0 -164 38t-113 109q-34 -66 -110.5 -105.5t-177.5 -39.5q-147 0 -238.5 88t-91.5 235q0 153 97.5 231t281.5 78h180v148q0 102 -51 160.5t-144 58.5q-95 0 -150 -49t-61 -137h-120q6 139 97.5 222t240.5 83q84 0 149 -39
t104 -109q42 71 113 109.5t158 38.5q155 0 245.5 -100.5t90.5 -282.5v-213h-549v-142q0 -132 55.5 -198t157.5 -66q105 0 162 63t57 189zM760 717v-107h428v107q0 132 -56 198t-159 66q-102 0 -157.5 -66t-55.5 -198zM637 299v205h-186q-250 0 -250 -201q0 -102 62 -155.5
t171 -53.5q95 0 149 56.5t54 148.5z" />
    <glyph glyph-name="ccedilla" unicode="&#xe7;" horiz-adv-x="884" 
d="M809 362q-4 -173 -90 -272t-234 -108l-24 -84q8 2 28 2q59 0 102.5 -39t43.5 -99q0 -75 -52.5 -118t-136.5 -43q-74 0 -124 39.5t-56 109.5h101q6 -27 28.5 -42t55.5 -15q38 0 62 18.5t24 52.5q0 70 -80 70q-39 0 -64 -14l-35 33l39 131q-134 18 -211 115.5t-77 262.5
v355q0 182 93 282.5t251 100.5q161 0 255.5 -100t98.5 -283h-123q-9 264 -231 264q-105 0 -163.5 -66t-58.5 -198v-355q0 -132 58.5 -198t163.5 -66q224 0 233 264h123z" />
    <glyph glyph-name="egrave" unicode="&#xe8;" horiz-adv-x="921" 
d="M555 1239h-119l-178 231h143zM709 330h120q-12 -169 -108.5 -259.5t-265.5 -90.5q-159 0 -252.5 100t-93.5 282v355q0 182 94.5 282.5t253.5 100.5q164 0 261 -100.5t97 -282.5v-238h-584v-117q0 -132 60 -198t168 -66q117 0 177.5 56.5t72.5 175.5zM459 981
q-108 0 -168 -66t-60 -198v-125h463v125q0 132 -61 198t-174 66z" />
    <glyph glyph-name="eacute" unicode="&#xe9;" horiz-adv-x="921" 
d="M645 1470l-178 -231h-119l154 231h143zM709 330h120q-12 -169 -108.5 -259.5t-265.5 -90.5q-159 0 -252.5 100t-93.5 282v355q0 182 94.5 282.5t253.5 100.5q164 0 261 -100.5t97 -282.5v-238h-584v-117q0 -132 60 -198t168 -66q117 0 177.5 56.5t72.5 175.5zM459 981
q-108 0 -168 -66t-60 -198v-125h463v125q0 132 -61 198t-174 66z" />
    <glyph glyph-name="ecircumflex" unicode="&#xea;" horiz-adv-x="921" 
d="M457 1380l-117 -143h-115l166 231h131l166 -231h-115zM709 330h120q-12 -169 -108.5 -259.5t-265.5 -90.5q-159 0 -252.5 100t-93.5 282v355q0 182 94.5 282.5t253.5 100.5q164 0 261 -100.5t97 -282.5v-238h-584v-117q0 -132 60 -198t168 -66q117 0 177.5 56.5
t72.5 175.5zM459 981q-108 0 -168 -66t-60 -198v-125h463v125q0 132 -61 198t-174 66z" />
    <glyph glyph-name="edieresis" unicode="&#xeb;" horiz-adv-x="921" 
d="M336 1282q-37 0 -59.5 21.5t-22.5 58.5t22.5 58.5t59.5 21.5q36 0 58 -22t22 -58t-22 -58t-58 -22zM578 1282q-37 0 -60.5 22t-23.5 58t23.5 58t60.5 22t59 -21.5t22 -58.5t-22 -58.5t-59 -21.5zM709 330h120q-12 -169 -108.5 -259.5t-265.5 -90.5q-159 0 -252.5 100
t-93.5 282v355q0 182 94.5 282.5t253.5 100.5q164 0 261 -100.5t97 -282.5v-238h-584v-117q0 -132 60 -198t168 -66q117 0 177.5 56.5t72.5 175.5zM459 981q-108 0 -168 -66t-60 -198v-125h463v125q0 132 -61 198t-174 66z" />
    <glyph glyph-name="igrave" unicode="&#xec;" horiz-adv-x="391" 
d="M-2 1481h143l154 -232h-119zM135 0v1075h121v-1075h-121z" />
    <glyph glyph-name="iacute" unicode="&#xed;" horiz-adv-x="391" 
d="M385 1481l-178 -232h-119l154 232h143zM135 0v1075h121v-1075h-121z" />
    <glyph glyph-name="icircumflex" unicode="&#xee;" horiz-adv-x="466" 
d="M299 1479l158 -232h-113l-111 144l-110 -144h-113l158 232h131zM172 0v1075h121v-1075h-121z" />
    <glyph glyph-name="idieresis" unicode="&#xef;" horiz-adv-x="409" 
d="M90 1294q-36 0 -58 21t-22 57t22 57t58 21t57 -21t21 -57t-21 -57t-57 -21zM319 1294q-37 0 -59 21t-22 57t22 57t59 21q36 0 58 -21t22 -57t-22 -57t-58 -21zM143 0v1075h121v-1075h-121z" />
    <glyph glyph-name="eth" unicode="&#xf0;" horiz-adv-x="915" 
d="M668 1290q137 -159 137 -379v-544q0 -185 -94.5 -286t-255.5 -101q-159 0 -252.5 101t-93.5 286v299q0 183 89.5 285t231.5 102q166 0 254 -111q-8 170 -123 291l-170 -92l-33 67l144 76q-82 63 -213 105l39 110q165 -41 286 -153l148 79l33 -67zM682 367v299
q0 134 -60 201t-165 67q-226 0 -226 -268v-299q0 -135 58.5 -202t165.5 -67q108 0 167.5 67t59.5 202z" />
    <glyph glyph-name="ntilde" unicode="&#xf1;" horiz-adv-x="946" 
d="M397 1335q-33 0 -39 -59h-110q3 74 40.5 117t98.5 43q36 0 67 -16.5t53.5 -33t39.5 -16.5q41 0 47 60h102q-8 -75 -44 -117.5t-95 -42.5q-35 0 -65.5 16.5t-53.5 32.5t-41 16zM535 1100q288 0 288 -412v-688h-121v670q0 164 -46.5 239.5t-151.5 75.5q-113 0 -180.5 -89.5
t-67.5 -244.5v-651h-121v1075h101l20 -133q91 158 279 158z" />
    <glyph glyph-name="ograve" unicode="&#xf2;" horiz-adv-x="933" 
d="M268 1481h144l153 -232h-119zM467 -25q-164 0 -261 102t-97 288v346q0 186 97 287.5t261 101.5t261 -101.5t97 -287.5v-346q0 -186 -97 -288t-261 -102zM467 94q112 0 173.5 67.5t61.5 203.5v346q0 136 -61.5 203t-173.5 67t-174 -67t-62 -203v-346q0 -136 62 -203.5
t174 -67.5z" />
    <glyph glyph-name="oacute" unicode="&#xf3;" horiz-adv-x="933" 
d="M655 1481l-178 -232h-119l154 232h143zM467 -25q-164 0 -261 102t-97 288v346q0 186 97 287.5t261 101.5t261 -101.5t97 -287.5v-346q0 -186 -97 -288t-261 -102zM467 94q112 0 173.5 67.5t61.5 203.5v346q0 136 -61.5 203t-173.5 67t-174 -67t-62 -203v-346
q0 -136 62 -203.5t174 -67.5z" />
    <glyph glyph-name="ocircumflex" unicode="&#xf4;" horiz-adv-x="933" 
d="M467 1391l-117 -144h-114l165 232h131l166 -232h-114zM467 1100q164 0 261 -101.5t97 -287.5v-346q0 -186 -97 -288t-261 -102t-261 102t-97 288v346q0 186 97 287.5t261 101.5zM702 365v346q0 136 -61.5 203t-173.5 67t-174 -67t-62 -203v-346q0 -136 62 -203.5
t174 -67.5t173.5 67.5t61.5 203.5z" />
    <glyph glyph-name="otilde" unicode="&#xf5;" horiz-adv-x="933" 
d="M391 1346q-33 0 -39 -60h-110q3 74 40.5 117t98.5 43q36 0 67 -16.5t53.5 -33t39.5 -16.5q41 0 47 60h102q-8 -75 -44 -117.5t-95 -42.5q-35 0 -65.5 16.5t-53.5 33t-41 16.5zM467 -25q-164 0 -261 102t-97 288v346q0 186 97 287.5t261 101.5t261 -101.5t97 -287.5v-346
q0 -186 -97 -288t-261 -102zM467 94q112 0 173.5 67.5t61.5 203.5v346q0 136 -61.5 203t-173.5 67t-174 -67t-62 -203v-346q0 -136 62 -203.5t174 -67.5z" />
    <glyph glyph-name="odieresis" unicode="&#xf6;" horiz-adv-x="933" 
d="M346 1292q-37 0 -59.5 21.5t-22.5 58.5t22.5 58.5t59.5 21.5q36 0 58 -22t22 -58t-22 -58t-58 -22zM588 1292q-37 0 -60.5 22t-23.5 58t23.5 58t60.5 22t59.5 -21.5t22.5 -58.5t-22.5 -58.5t-59.5 -21.5zM467 -25q-164 0 -261 102t-97 288v346q0 186 97 287.5t261 101.5
t261 -101.5t97 -287.5v-346q0 -186 -97 -288t-261 -102zM467 94q112 0 173.5 67.5t61.5 203.5v346q0 136 -61.5 203t-173.5 67t-174 -67t-62 -203v-346q0 -136 62 -203.5t174 -67.5z" />
    <glyph glyph-name="divide" unicode="&#xf7;" horiz-adv-x="905" 
d="M453 829q-39 0 -67 28t-28 67q0 40 27.5 67t67.5 27q39 0 66.5 -27.5t27.5 -66.5q0 -38 -28 -66.5t-66 -28.5zM94 575v115h717v-115h-717zM453 231q-39 0 -67 28t-28 67q0 40 27.5 67t67.5 27q39 0 66.5 -27.5t27.5 -66.5q0 -38 -28 -66.5t-66 -28.5z" />
    <glyph glyph-name="oslash" unicode="&#xf8;" horiz-adv-x="933" 
d="M717 1010q108 -105 108 -299v-342q0 -186 -97 -287.5t-261 -101.5q-86 0 -156 28l-53 -131h-119l78 193q-108 102 -108 299v342q0 186 97 287.5t261 101.5q82 0 158 -29l51 127h119zM231 369q0 -106 39 -170l310 759q-47 23 -113 23q-112 0 -174 -67t-62 -203v-342z
M702 369v342q0 108 -36 170l-310 -762q50 -21 111 -21q112 0 173.5 67.5t61.5 203.5z" />
    <glyph glyph-name="ugrave" unicode="&#xf9;" horiz-adv-x="946" 
d="M569 1239h-118l-179 231h144zM690 1075h121v-1075h-100l-21 133q-91 -158 -278 -158q-137 0 -213 99.5t-76 312.5v688h121v-669q0 -164 46.5 -240t151.5 -76q113 0 180.5 89.5t67.5 244.5v651z" />
    <glyph glyph-name="uacute" unicode="&#xfa;" horiz-adv-x="946" 
d="M659 1470l-178 -231h-119l154 231h143zM690 1075h121v-1075h-100l-21 133q-91 -158 -278 -158q-137 0 -213 99.5t-76 312.5v688h121v-669q0 -164 46.5 -240t151.5 -76q113 0 180.5 89.5t67.5 244.5v651z" />
    <glyph glyph-name="ucircumflex" unicode="&#xfb;" horiz-adv-x="946" 
d="M471 1380l-117 -143h-114l166 231h131l165 -231h-114zM690 1075h121v-1075h-100l-21 133q-91 -158 -278 -158q-137 0 -213 99.5t-76 312.5v688h121v-669q0 -164 46.5 -240t151.5 -76q113 0 180.5 89.5t67.5 244.5v651z" />
    <glyph glyph-name="udieresis" unicode="&#xfc;" horiz-adv-x="946" 
d="M350 1282q-37 0 -59.5 21.5t-22.5 58.5t22.5 58.5t59.5 21.5q36 0 58 -22t22 -58t-22 -58t-58 -22zM592 1282q-37 0 -60.5 22t-23.5 58t23.5 58t60.5 22t59.5 -21.5t22.5 -58.5t-22.5 -58.5t-59.5 -21.5zM690 1075h121v-1075h-100l-21 133q-91 -158 -278 -158
q-137 0 -213 99.5t-76 312.5v688h121v-669q0 -164 46.5 -240t151.5 -76q113 0 180.5 89.5t67.5 244.5v651z" />
    <glyph glyph-name="yacute" unicode="&#xfd;" horiz-adv-x="792" 
d="M575 1481l-178 -232h-118l153 232h143zM649 1075h127l-362 -1206q-39 -131 -95.5 -195.5t-160.5 -64.5h-70v119h53q64 0 96 40t56 119l67 222l-344 966h129l269 -784z" />
    <glyph glyph-name="thorn" unicode="&#xfe;" horiz-adv-x="935" 
d="M504 1090q153 0 238 -103.5t85 -300.5v-266q0 -197 -85 -300.5t-238 -103.5q-75 0 -141 30.5t-109 90.5v-506h-119v1844h119v-506q43 60 109 90.5t141 30.5zM705 420v266q0 152 -56 221.5t-172 69.5q-101 0 -162 -80.5t-61 -210.5v-266q0 -130 61 -210.5t162 -80.5
q116 0 172 69.5t56 221.5z" />
    <glyph glyph-name="ydieresis" unicode="&#xff;" horiz-adv-x="792" 
d="M266 1292q-37 0 -59.5 21.5t-22.5 58.5t22.5 58.5t59.5 21.5q36 0 58 -22t22 -58t-22 -58t-58 -22zM508 1292q-37 0 -60.5 22t-23.5 58t23.5 58t60.5 22t59.5 -21.5t22.5 -58.5t-22.5 -58.5t-59.5 -21.5zM649 1075h127l-362 -1206q-39 -131 -95.5 -195.5t-160.5 -64.5
h-70v119h53q64 0 96 40t56 119l67 222l-344 966h129l269 -784z" />
    <glyph glyph-name="Amacron" unicode="&#x100;" horiz-adv-x="937" 
d="M653 1739v-107h-377v107h377zM780 0l-84 336h-454l-84 -336h-135l376 1434h140l376 -1434h-135zM270 451h398l-148 593q-30 114 -49 226h-4q-19 -112 -49 -226z" />
    <glyph glyph-name="amacron" unicode="&#x101;" horiz-adv-x="915" 
d="M635 1411v-102h-377v102h377zM451 1100q153 0 241 -96t88 -261v-743h-104l-10 100q-85 -125 -248 -125q-151 0 -245.5 88t-94.5 242q0 155 95.5 238.5t272.5 83.5h213v114q0 118 -54.5 180t-158.5 62q-93 0 -151 -50t-64 -138h-120q6 138 98.5 221.5t241.5 83.5zM436 94
q102 0 162.5 58t60.5 151v211h-217q-118 0 -179.5 -54t-61.5 -157t63.5 -156t171.5 -53z" />
    <glyph glyph-name="Abreve" unicode="&#x102;" horiz-adv-x="937" 
d="M465 1569q-106 0 -167 61.5t-65 175.5h107q5 -69 34.5 -102t90.5 -33t90.5 33t34.5 102h106q-4 -114 -64.5 -175.5t-166.5 -61.5zM780 0l-84 336h-454l-84 -336h-135l376 1434h140l376 -1434h-135zM270 451h398l-148 593q-30 114 -49 226h-4q-19 -112 -49 -226z" />
    <glyph glyph-name="abreve" unicode="&#x103;" horiz-adv-x="915" 
d="M446 1243q-106 0 -166.5 62t-64.5 176h107q5 -69 34.5 -102t89.5 -33q61 0 90.5 33t34.5 102h107q-4 -114 -65 -176t-167 -62zM451 1100q153 0 241 -96t88 -261v-743h-104l-10 100q-85 -125 -248 -125q-151 0 -245.5 88t-94.5 242q0 155 95.5 238.5t272.5 83.5h213v114
q0 118 -54.5 180t-158.5 62q-93 0 -151 -50t-64 -138h-120q6 138 98.5 221.5t241.5 83.5zM436 94q102 0 162.5 58t60.5 151v211h-217q-118 0 -179.5 -54t-61.5 -157t63.5 -156t171.5 -53z" />
    <glyph glyph-name="Aogonek" unicode="&#x104;" horiz-adv-x="940" 
d="M852 -281q45 0 66 7v-107q-34 -12 -84 -12q-89 0 -133 48.5t-44 117.5q0 120 123 227l-84 336h-454l-84 -336h-135l376 1434h140l376 -1434h-22q-51 -44 -85 -102.5t-34 -104.5q0 -38 23 -56t55 -18zM270 451h398l-148 593q-30 114 -49 226h-4q-19 -112 -49 -226z" />
    <glyph glyph-name="aogonek" unicode="&#x105;" horiz-adv-x="915" 
d="M696 -393q-89 0 -132.5 48.5t-43.5 117.5q0 117 156 227l-10 100q-85 -125 -248 -125q-151 0 -245.5 88t-94.5 242q0 155 95.5 238.5t272.5 83.5h213v114q0 118 -54.5 180t-158.5 62q-93 0 -151 -50t-64 -138h-120q6 138 98.5 221.5t241.5 83.5q153 0 241 -96t88 -261
v-743q-61 -43 -102 -101.5t-41 -105.5q0 -38 23 -56t55 -18q44 0 65 7v-107q-34 -12 -84 -12zM436 94q102 0 162.5 58t60.5 151v211h-217q-118 0 -179.5 -54t-61.5 -157t63.5 -156t171.5 -53z" />
    <glyph glyph-name="Cacute" unicode="&#x106;" horiz-adv-x="983" 
d="M395 1575l189 231h147l-215 -231h-121zM510 -25q-176 0 -283.5 114t-107.5 317v622q0 203 105 316.5t278 113.5q176 0 281.5 -108t115.5 -306h-123q-10 150 -80.5 224.5t-193.5 74.5q-120 0 -190 -80t-70 -235v-622q0 -155 72.5 -235.5t195.5 -80.5q248 0 278 299h123
q-15 -197 -119.5 -305.5t-281.5 -108.5z" />
    <glyph glyph-name="cacute" unicode="&#x107;" horiz-adv-x="884" 
d="M637 1481l-178 -232h-119l154 232h143zM453 -20q-158 0 -251 100t-93 282v355q0 182 93 282.5t251 100.5q161 0 255.5 -100t98.5 -283h-123q-9 264 -231 264q-105 0 -163.5 -66t-58.5 -198v-355q0 -132 58.5 -198t163.5 -66q224 0 233 264h123q-4 -182 -99 -282
t-257 -100z" />
    <glyph glyph-name="Cdotaccent" unicode="&#x10a;" horiz-adv-x="983" 
d="M494 1626q-44 0 -71.5 27t-27.5 71t27.5 71.5t71.5 27.5t71 -27.5t27 -71.5t-27 -71t-71 -27zM510 -25q-176 0 -283.5 114t-107.5 317v622q0 203 105 316.5t278 113.5q176 0 281.5 -108t115.5 -306h-123q-10 150 -80.5 224.5t-193.5 74.5q-120 0 -190 -80t-70 -235v-622
q0 -155 72.5 -235.5t195.5 -80.5q248 0 278 299h123q-15 -197 -119.5 -305.5t-281.5 -108.5z" />
    <glyph glyph-name="cdotaccent" unicode="&#x10b;" horiz-adv-x="884" 
d="M446 1274q-44 0 -71 27t-27 71t27 71t71 27t71.5 -27t27.5 -71t-27.5 -71t-71.5 -27zM453 -20q-158 0 -251 100t-93 282v355q0 182 93 282.5t251 100.5q161 0 255.5 -100t98.5 -283h-123q-9 264 -231 264q-105 0 -163.5 -66t-58.5 -198v-355q0 -132 58.5 -198t163.5 -66
q224 0 233 264h123q-4 -182 -99 -282t-257 -100z" />
    <glyph glyph-name="Ccaron" unicode="&#x10c;" horiz-adv-x="983" 
d="M557 1575h-131l-166 231h115l117 -143l116 143h115zM788 389h123q-15 -197 -119.5 -305.5t-281.5 -108.5q-176 0 -283.5 114t-107.5 317v622q0 203 105 316.5t278 113.5q176 0 281.5 -108t115.5 -306h-123q-10 150 -80.5 224.5t-193.5 74.5q-120 0 -190 -80t-70 -235
v-622q0 -155 72.5 -235.5t195.5 -80.5q248 0 278 299z" />
    <glyph glyph-name="ccaron" unicode="&#x10d;" horiz-adv-x="884" 
d="M514 1249h-131l-166 232h115l117 -144l116 144h115zM686 362h123q-4 -182 -99 -282t-257 -100q-158 0 -251 100t-93 282v355q0 182 93 282.5t251 100.5q161 0 255.5 -100t98.5 -283h-123q-9 264 -231 264q-105 0 -163.5 -66t-58.5 -198v-355q0 -132 58.5 -198t163.5 -66
q224 0 233 264z" />
    <glyph glyph-name="Dcaron" unicode="&#x10e;" horiz-adv-x="1024" 
d="M535 1575h-132l-165 231h114l117 -143l117 143h114zM479 1434q202 0 314 -110t112 -310v-596q0 -197 -113 -307.5t-313 -110.5h-321v1434h321zM778 424v584q0 151 -76.5 228t-222.5 77h-194v-1192h194q144 0 221.5 77t77.5 226z" />
    <glyph glyph-name="dcaron" unicode="&#x10f;" horiz-adv-x="997" 
d="M926 1565h133l-66 -346h-86zM692 979v504h119v-1483h-98l-17 100q-43 -60 -109.5 -92.5t-144.5 -32.5q-151 0 -242 106.5t-91 305.5v309q0 197 87.5 300.5t245.5 103.5q75 0 141 -30.5t109 -90.5zM469 88q98 0 160.5 75.5t62.5 219.5v313q0 130 -61 210.5t-162 80.5
q-120 0 -179 -69.5t-59 -221.5v-309q0 -299 238 -299z" />
    <glyph glyph-name="Dcroat" unicode="&#x110;" horiz-adv-x="1052" 
d="M508 1434q202 0 314 -110t112 -310v-596q0 -197 -113 -307.5t-313 -110.5h-322v670h-161v112h161v652h322zM807 424v584q0 151 -76.5 228t-222.5 77h-195v-531h203v-112h-203v-549h195q144 0 221.5 77t77.5 226z" />
    <glyph glyph-name="dcroat" unicode="&#x111;" horiz-adv-x="952" 
d="M930 1354v-94h-119v-1260h-98l-17 100q-43 -60 -109.5 -92.5t-144.5 -32.5q-151 0 -242 106.5t-91 305.5v309q0 197 87.5 300.5t245.5 103.5q75 0 141 -30.5t109 -90.5v281h-192v94h192v129h119v-129h119zM469 88q98 0 160.5 75.5t62.5 219.5v313q0 130 -61 210.5
t-162 80.5q-120 0 -179 -69.5t-59 -221.5v-309q0 -299 238 -299z" />
    <glyph glyph-name="Emacron" unicode="&#x112;" horiz-adv-x="929" 
d="M684 1739v-107h-377v107h377zM285 117h563v-117h-690v1434h667v-117h-540v-531h506v-116h-506v-553z" />
    <glyph glyph-name="emacron" unicode="&#x113;" horiz-adv-x="921" 
d="M645 1401v-103h-377v103h377zM709 330h120q-12 -169 -108.5 -259.5t-265.5 -90.5q-159 0 -252.5 100t-93.5 282v355q0 182 94.5 282.5t253.5 100.5q164 0 261 -100.5t97 -282.5v-238h-584v-117q0 -132 60 -198t168 -66q117 0 177.5 56.5t72.5 175.5zM459 981
q-108 0 -168 -66t-60 -198v-125h463v125q0 132 -61 198t-174 66z" />
    <glyph glyph-name="Edotaccent" unicode="&#x116;" horiz-adv-x="929" 
d="M496 1626q-44 0 -71.5 27t-27.5 71t27.5 71.5t71.5 27.5t71 -27.5t27 -71.5t-27 -71t-71 -27zM285 117h563v-117h-690v1434h667v-117h-540v-531h506v-116h-506v-553z" />
    <glyph glyph-name="edotaccent" unicode="&#x117;" horiz-adv-x="921" 
d="M455 1264q-44 0 -71.5 27t-27.5 71t27.5 71t71.5 27t71 -27t27 -71t-27 -71t-71 -27zM709 330h120q-12 -169 -108.5 -259.5t-265.5 -90.5q-159 0 -252.5 100t-93.5 282v355q0 182 94.5 282.5t253.5 100.5q164 0 261 -100.5t97 -282.5v-238h-584v-117q0 -132 60 -198
t168 -66q117 0 177.5 56.5t72.5 175.5zM459 981q-108 0 -168 -66t-60 -198v-125h463v125q0 132 -61 198t-174 66z" />
    <glyph glyph-name="Eogonek" unicode="&#x118;" horiz-adv-x="946" 
d="M799 -281q44 0 65 7v-107q-35 -12 -84 -12q-88 0 -132 49.5t-44 118.5q0 117 131 225h-577v1434h667v-117h-540v-531h506v-116h-506v-553h563v-117q-54 -42 -90.5 -98t-36.5 -101q0 -42 23 -62t55 -20z" />
    <glyph glyph-name="eogonek" unicode="&#x119;" horiz-adv-x="921" 
d="M633 -393q-89 0 -132.5 48.5t-43.5 121.5q0 102 92 209v2q-39 -8 -90 -8q-163 0 -256.5 100t-93.5 282v355q0 181 94 282t256 101t259 -100.5t97 -282.5v-238h-584v-117q0 -264 234 -264q222 0 244 232h120q-7 -68 -22 -114.5t-32 -72t-52 -67.5q-73 -82 -111.5 -145.5
t-38.5 -125.5q0 -86 78 -86q45 0 66 7v-107q-34 -12 -84 -12zM231 592h463v125q0 131 -61 197.5t-172 66.5q-110 0 -170 -65.5t-60 -198.5v-125z" />
    <glyph glyph-name="Ecaron" unicode="&#x11a;" horiz-adv-x="929" 
d="M559 1575h-131l-166 231h115l117 -143l116 143h115zM285 117h563v-117h-690v1434h667v-117h-540v-531h506v-116h-506v-553z" />
    <glyph glyph-name="ecaron" unicode="&#x11b;" horiz-adv-x="921" 
d="M522 1239h-131l-166 231h115l117 -143l116 143h115zM709 330h120q-12 -169 -108.5 -259.5t-265.5 -90.5q-159 0 -252.5 100t-93.5 282v355q0 182 94.5 282.5t253.5 100.5q164 0 261 -100.5t97 -282.5v-238h-584v-117q0 -132 60 -198t168 -66q117 0 177.5 56.5t72.5 175.5
zM459 981q-108 0 -168 -66t-60 -198v-125h463v125q0 132 -61 198t-174 66z" />
    <glyph glyph-name="Gbreve" unicode="&#x11e;" horiz-adv-x="1015" 
d="M492 1569q-106 0 -167 61.5t-65 175.5h107q5 -69 34.5 -102t90.5 -33q60 0 89.5 33t34.5 102h107q-4 -114 -64.5 -175.5t-166.5 -61.5zM516 -20q-179 0 -288 114t-109 320v608q0 209 103.5 320.5t283.5 111.5q176 0 282 -107.5t113 -302.5h-123q-7 146 -78 218.5
t-194 72.5q-126 0 -195 -78.5t-69 -236.5v-606q0 -156 74 -236t200 -80q127 0 202 76t75 219v256h-279v115h399v-371q0 -192 -109.5 -302.5t-287.5 -110.5z" />
    <glyph glyph-name="gbreve" unicode="&#x11f;" horiz-adv-x="948" 
d="M465 1243q-106 0 -167 62t-65 176h107q5 -69 34.5 -102t90.5 -33t90.5 33t34.5 102h106q-4 -114 -64.5 -176t-166.5 -62zM713 1075h100v-1149q0 -145 -93.5 -233t-248.5 -88q-149 0 -241.5 84t-100.5 227h117q7 -96 66 -147.5t159 -51.5q103 0 162 55.5t59 153.5v209
q-82 -102 -237 -102q-158 0 -252 101t-94 282v276q0 196 93 302t249 106q157 0 245 -133zM475 147q103 0 160 67.5t57 201.5v297q0 133 -61 202.5t-156 69.5q-244 0 -244 -293v-276q0 -134 64 -201.5t180 -67.5z" />
    <glyph glyph-name="Gdotaccent" unicode="&#x120;" horiz-adv-x="1015" 
d="M492 1626q-44 0 -71.5 27t-27.5 71t27.5 71.5t71.5 27.5t71 -27.5t27 -71.5t-27 -71t-71 -27zM516 -20q-179 0 -288 114t-109 320v608q0 209 103.5 320.5t283.5 111.5q176 0 282 -107.5t113 -302.5h-123q-7 146 -78 218.5t-194 72.5q-126 0 -195 -78.5t-69 -236.5v-606
q0 -156 74 -236t200 -80q127 0 202 76t75 219v256h-279v115h399v-371q0 -192 -109.5 -302.5t-287.5 -110.5z" />
    <glyph glyph-name="gdotaccent" unicode="&#x121;" horiz-adv-x="948" 
d="M463 1274q-44 0 -71 27t-27 71t27 71t71 27t71 -27t27 -71t-27 -71t-71 -27zM713 1075h100v-1149q0 -145 -93.5 -233t-248.5 -88q-149 0 -241.5 84t-100.5 227h117q7 -96 66 -147.5t159 -51.5q103 0 162 55.5t59 153.5v209q-82 -102 -237 -102q-158 0 -252 101t-94 282
v276q0 196 93 302t249 106q157 0 245 -133zM475 147q103 0 160 67.5t57 201.5v297q0 133 -61 202.5t-156 69.5q-244 0 -244 -293v-276q0 -134 64 -201.5t180 -67.5z" />
    <glyph glyph-name="Gcommaaccent" unicode="&#x122;" horiz-adv-x="1015" 
d="M516 -20q-179 0 -288 114t-109 320v608q0 209 103.5 320.5t283.5 111.5q176 0 282 -107.5t113 -302.5h-123q-7 146 -78 218.5t-194 72.5q-126 0 -195 -78.5t-69 -236.5v-606q0 -156 74 -236t200 -80q127 0 202 76t75 219v256h-279v115h399v-371q0 -192 -109.5 -302.5
t-287.5 -110.5zM391 -510l37 369h133l-76 -369h-94z" />
    <glyph glyph-name="gcommaaccent" unicode="&#x123;" horiz-adv-x="948" 
d="M545 1241h-137l-37 363h88zM713 1075h100v-1149q0 -145 -93.5 -233t-248.5 -88q-149 0 -241.5 84t-100.5 227h117q7 -96 66 -147.5t159 -51.5q103 0 162 55.5t59 153.5v209q-82 -102 -237 -102q-158 0 -252 101t-94 282v276q0 196 93 302t249 106q157 0 245 -133z
M475 147q103 0 160 67.5t57 201.5v297q0 133 -61 202.5t-156 69.5q-244 0 -244 -293v-276q0 -134 64 -201.5t180 -67.5z" />
    <glyph glyph-name="Hbar" unicode="&#x126;" horiz-adv-x="1130" 
d="M1090 1171v-94h-142v-1077h-127v670h-510v-670h-127v1077h-143v94h143v263h127v-263h510v263h127v-263h142zM821 788v289h-510v-289h510z" />
    <glyph glyph-name="hbar" unicode="&#x127;" horiz-adv-x="942" 
d="M530 1100q289 0 289 -451v-649h-121v639q0 184 -47.5 265t-150.5 81q-114 0 -181 -89.5t-67 -246.5v-649h-121v1249h-131v94h131v138h121v-138h199v-94h-199v-309q92 160 278 160z" />
    <glyph glyph-name="Imacron" unicode="&#x12a;" horiz-adv-x="442" 
d="M37 1739h377v-107h-377v107zM158 1434h127v-1434h-127v1434z" />
    <glyph glyph-name="imacron" unicode="&#x12b;" horiz-adv-x="387" 
d="M14 1411h361v-106h-361v106zM133 0v1075h121v-1075h-121z" />
    <glyph glyph-name="Iogonek" unicode="&#x12e;" horiz-adv-x="434" 
d="M260 -281q45 0 66 7v-107q-35 -12 -84 -12q-92 0 -137.5 50.5t-45.5 123.5q0 116 95 219v1434h127v-1434q-44 -42 -74.5 -99.5t-30.5 -99.5q0 -43 25 -62.5t59 -19.5z" />
    <glyph glyph-name="iogonek" unicode="&#x12f;" horiz-adv-x="385" 
d="M195 1280q-35 0 -57.5 23t-22.5 57q0 35 22.5 57.5t57.5 22.5q34 0 56.5 -22.5t22.5 -57.5q0 -33 -23 -56.5t-56 -23.5zM233 -281q45 0 66 7v-107q-35 -12 -84 -12q-89 0 -132.5 48.5t-43.5 117.5q0 118 94 223v1069h121v-1065q-42 -42 -70 -94.5t-28 -95.5
q0 -47 22.5 -69t54.5 -22z" />
    <glyph glyph-name="Idotaccent" unicode="&#x130;" horiz-adv-x="442" 
d="M225 1626q-44 0 -71 27t-27 71t27 71.5t71 27.5t71.5 -27.5t27.5 -71.5t-27.5 -71t-71.5 -27zM158 1434h127v-1434h-127v1434z" />
    <glyph glyph-name="dotlessi" unicode="&#x131;" horiz-adv-x="391" 
d="M135 0v1075h121v-1075h-121z" />
    <glyph glyph-name="Kcommaaccent" unicode="&#x136;" horiz-adv-x="983" 
d="M469 809l514 -809h-152l-444 698l-102 -139v-559h-127v1434h127v-684l116 168l367 516h158zM416 -510l37 369h133l-76 -369h-94z" />
    <glyph glyph-name="kcommaaccent" unicode="&#x137;" horiz-adv-x="870" 
d="M444 641l426 -641h-145l-363 547l-106 -117v-430h-121v1483h121v-887l408 479h153zM371 -510l37 369h133l-76 -369h-94z" />
    <glyph glyph-name="Lacute" unicode="&#x139;" horiz-adv-x="780" 
d="M481 1806l-215 -231h-121l189 231h147zM285 121h524v-121h-651v1434h127v-1313z" />
    <glyph glyph-name="lacute" unicode="&#x13a;" horiz-adv-x="403" 
d="M104 1575l189 231h147l-215 -231h-121zM141 0v1481h121v-1481h-121z" />
    <glyph glyph-name="Lcommaaccent" unicode="&#x13b;" horiz-adv-x="825" 
d="M285 121h524v-121h-651v1434h127v-1313zM328 -510l37 369h133l-76 -369h-94z" />
    <glyph glyph-name="lcommaaccent" unicode="&#x13c;" horiz-adv-x="452" 
d="M154 0v1481h120v-1481h-120zM141 -510l37 369h133l-75 -369h-95z" />
    <glyph glyph-name="Lcaron" unicode="&#x13d;" horiz-adv-x="790" 
d="M285 117h489v-117h-616v1434h127v-1317zM653 1434l-65 -357h-86l18 357h133z" />
    <glyph glyph-name="lcaron" unicode="&#x13e;" horiz-adv-x="448" 
d="M358 1206l19 357h133l-66 -357h-86zM141 0v1481h121v-1481h-121z" />
    <glyph glyph-name="Lslash" unicode="&#x141;" horiz-adv-x="847" 
d="M342 117h489v-117h-616v653l-166 -63v121l166 63v660h127v-611l268 103v-121l-268 -103v-585z" />
    <glyph glyph-name="lslash" unicode="&#x142;" horiz-adv-x="479" 
d="M453 958v-114l-158 -56v-788h-121v748l-147 -52v115l147 51v613h121v-572z" />
    <glyph glyph-name="Nacute" unicode="&#x143;" horiz-adv-x="1105" 
d="M455 1575l188 231h148l-216 -231h-120zM821 1434h127v-1434h-131l-391 842q-72 155 -145 348l-7 -2q11 -300 11 -385v-803h-127v1434h131l387 -836q77 -161 155 -354l7 2q-17 295 -17 413v775z" />
    <glyph glyph-name="nacute" unicode="&#x144;" horiz-adv-x="946" 
d="M662 1470l-179 -231h-118l153 231h144zM535 1100q288 0 288 -412v-688h-121v670q0 164 -46.5 239.5t-151.5 75.5q-113 0 -180.5 -89.5t-67.5 -244.5v-651h-121v1075h101l20 -133q91 158 279 158z" />
    <glyph glyph-name="Ncommaaccent" unicode="&#x145;" horiz-adv-x="1105" 
d="M821 1434h127v-1434h-131l-391 842q-72 155 -145 348l-7 -2q11 -300 11 -385v-803h-127v1434h131l387 -836q77 -161 155 -354l7 2q-17 295 -17 413v775zM453 -510l36 369h134l-76 -369h-94z" />
    <glyph glyph-name="ncommaaccent" unicode="&#x146;" horiz-adv-x="946" 
d="M535 1100q288 0 288 -412v-688h-121v670q0 164 -46.5 239.5t-151.5 75.5q-113 0 -180.5 -89.5t-67.5 -244.5v-651h-121v1075h101l20 -133q91 158 279 158zM399 -510l37 369h133l-75 -369h-95z" />
    <glyph glyph-name="Ncaron" unicode="&#x147;" horiz-adv-x="1105" 
d="M616 1575h-131l-166 231h115l117 -143l117 143h114zM821 1434h127v-1434h-131l-391 842q-72 155 -145 348l-7 -2q11 -300 11 -385v-803h-127v1434h131l387 -836q77 -161 155 -354l7 2q-17 295 -17 413v775z" />
    <glyph glyph-name="ncaron" unicode="&#x148;" horiz-adv-x="946" 
d="M539 1239h-131l-166 231h114l117 -143l117 143h115zM535 1100q288 0 288 -412v-688h-121v670q0 164 -46.5 239.5t-151.5 75.5q-113 0 -180.5 -89.5t-67.5 -244.5v-651h-121v1075h101l20 -133q91 158 279 158z" />
    <glyph glyph-name="Eng" unicode="&#x14a;" horiz-adv-x="1105" 
d="M821 1434h127v-1495q0 -154 -86 -242.5t-258 -89.5v117q119 3 171 56.5t52 158.5v45l-409 874q-61 130 -137 332l-7 -2q11 -300 11 -385v-803h-127v1434h131l399 -852q94 -221 150 -371l6 2q-23 255 -23 436v785z" />
    <glyph glyph-name="eng" unicode="&#x14b;" horiz-adv-x="946" 
d="M535 1100q142 0 215 -98.5t73 -313.5v-776q0 -154 -86 -242.5t-258 -89.5v117q119 3 171 56.5t52 158.5v758q0 164 -46.5 239.5t-151.5 75.5q-113 0 -180.5 -89.5t-67.5 -244.5v-651h-121v1075h101l20 -133q91 158 279 158z" />
    <glyph glyph-name="Omacron" unicode="&#x14c;" horiz-adv-x="1060" 
d="M342 1739h377v-107h-377v107zM530 -27q-192 0 -301.5 126.5t-109.5 344.5v545q0 218 109.5 344.5t301.5 126.5q193 0 302.5 -126.5t109.5 -344.5v-545q0 -218 -109.5 -344.5t-302.5 -126.5zM530 96q138 0 210.5 90.5t72.5 257.5v545q0 167 -72.5 257.5t-210.5 90.5
t-210 -90.5t-72 -257.5v-545q0 -167 72 -257.5t210 -90.5z" />
    <glyph glyph-name="omacron" unicode="&#x14d;" horiz-adv-x="933" 
d="M279 1411h376v-102h-376v102zM467 -25q-164 0 -261 102t-97 288v346q0 186 97 287.5t261 101.5t261 -101.5t97 -287.5v-346q0 -186 -97 -288t-261 -102zM467 94q112 0 173.5 67.5t61.5 203.5v346q0 136 -61.5 203t-173.5 67t-174 -67t-62 -203v-346q0 -136 62 -203.5
t174 -67.5z" />
    <glyph glyph-name="Ohungarumlaut" unicode="&#x150;" horiz-adv-x="1060" 
d="M614 1806l-168 -231h-108l139 231h137zM823 1806l-176 -231h-108l147 231h137zM530 -27q-192 0 -301.5 126.5t-109.5 344.5v545q0 218 109.5 344.5t301.5 126.5q193 0 302.5 -126.5t109.5 -344.5v-545q0 -218 -109.5 -344.5t-302.5 -126.5zM530 96q138 0 210.5 90.5
t72.5 257.5v545q0 167 -72.5 257.5t-210.5 90.5t-210 -90.5t-72 -257.5v-545q0 -167 72 -257.5t210 -90.5z" />
    <glyph glyph-name="ohungarumlaut" unicode="&#x151;" horiz-adv-x="933" 
d="M545 1481l-168 -232h-109l140 232h137zM754 1481l-176 -232h-109l147 232h138zM467 -25q-164 0 -261 102t-97 288v346q0 186 97 287.5t261 101.5t261 -101.5t97 -287.5v-346q0 -186 -97 -288t-261 -102zM467 94q112 0 173.5 67.5t61.5 203.5v346q0 136 -61.5 203
t-173.5 67t-174 -67t-62 -203v-346q0 -136 62 -203.5t174 -67.5z" />
    <glyph glyph-name="OE" unicode="&#x152;" horiz-adv-x="1587" 
d="M942 117h563v-117h-690v111q-107 -138 -285 -138q-192 0 -301.5 126.5t-109.5 344.5v545q0 218 109.5 344.5t301.5 126.5q179 0 285 -137v111h668v-117h-541v-531h506v-116h-506v-553zM813 444v545q0 167 -72.5 257.5t-210.5 90.5t-210 -90.5t-72 -257.5v-545
q0 -167 72 -257.5t210 -90.5t210.5 90.5t72.5 257.5z" />
    <glyph glyph-name="oe" unicode="&#x153;" horiz-adv-x="1466" 
d="M1374 489h-567v-127q0 -132 58 -198t163 -66q108 0 166.5 63t58.5 189h121q0 -176 -93.5 -273t-252.5 -97q-94 0 -168 46t-115 130q-42 -87 -116 -131.5t-170 -44.5q-161 0 -255.5 101t-94.5 286v335q0 185 94.5 286.5t255.5 101.5q96 0 170 -45t116 -132q41 85 115 131
t168 46q159 0 252.5 -100.5t93.5 -282.5v-218zM684 367v335q0 135 -59 202t-166 67q-109 0 -168.5 -67t-59.5 -202v-335q0 -135 59.5 -202t168.5 -67q107 0 166 67t59 202zM807 707v-111h446v111q0 132 -58.5 198t-166.5 66q-105 0 -163 -66t-58 -198z" />
    <glyph glyph-name="Racute" unicode="&#x154;" horiz-adv-x="989" 
d="M723 1806l-215 -231h-121l188 231h148zM784 0l-342 559h-157v-559h-127v1434h327q197 0 303.5 -110t106.5 -310q0 -186 -83 -302.5t-232 -144.5l352 -567h-148zM285 1315v-637h198q139 0 211 84.5t72 243.5q0 153 -71.5 231t-209.5 78h-200z" />
    <glyph glyph-name="racute" unicode="&#x155;" horiz-adv-x="677" 
d="M567 1481l-178 -232h-119l154 232h143zM537 1098q63 0 108 -11v-131q-64 23 -135 23q-116 0 -185 -87.5t-69 -240.5v-651h-121v1075h101l20 -135v-2q92 160 281 160z" />
    <glyph glyph-name="Rcommaaccent" unicode="&#x156;" horiz-adv-x="989" 
d="M580 567l352 -567h-148l-342 559h-157v-559h-127v1434h327q197 0 303.5 -110t106.5 -310q0 -186 -83 -302.5t-232 -144.5zM285 1315v-637h198q139 0 211 84.5t72 243.5q0 153 -71.5 231t-209.5 78h-200zM387 -510l37 369h133l-76 -369h-94z" />
    <glyph glyph-name="rcommaaccent" unicode="&#x157;" horiz-adv-x="677" 
d="M537 1098q63 0 108 -11v-131q-64 23 -135 23q-116 0 -185 -87.5t-69 -240.5v-651h-121v1075h101l20 -135v-2q92 160 281 160zM143 -510l37 369h133l-75 -369h-95z" />
    <glyph glyph-name="Rcaron" unicode="&#x158;" horiz-adv-x="989" 
d="M549 1575h-131l-166 231h115l116 -143l117 143h115zM784 0l-342 559h-157v-559h-127v1434h327q197 0 303.5 -110t106.5 -310q0 -186 -83 -302.5t-232 -144.5l352 -567h-148zM285 1315v-637h198q139 0 211 84.5t72 243.5q0 153 -71.5 231t-209.5 78h-200z" />
    <glyph glyph-name="rcaron" unicode="&#x159;" horiz-adv-x="677" 
d="M444 1249h-131l-166 232h115l117 -144l117 144h114zM537 1098q63 0 108 -11v-131q-64 23 -135 23q-116 0 -185 -87.5t-69 -240.5v-651h-121v1075h101l20 -135v-2q92 160 281 160z" />
    <glyph glyph-name="Sacute" unicode="&#x15a;" horiz-adv-x="923" 
d="M367 1575l188 231h147l-215 -231h-120zM465 -27q-178 0 -286 108.5t-113 287.5h127q4 -132 75 -202.5t193 -70.5q127 0 193.5 71.5t66.5 192.5q0 53 -21.5 99t-58.5 81.5t-84.5 68.5t-100.5 63.5t-105.5 62.5t-100 70t-84.5 80.5t-58.5 100t-21.5 124.5q0 150 103.5 250
t267.5 100q166 0 266 -106.5t108 -278.5h-126q-6 130 -71.5 196t-172.5 66q-116 0 -181 -61.5t-65 -165.5q0 -53 21.5 -98.5t58.5 -80.5t84.5 -67t100 -62t105.5 -61.5t100.5 -69.5t84.5 -81t58.5 -102t21.5 -128q0 -100 -42.5 -186.5t-132 -143.5t-210.5 -57z" />
    <glyph glyph-name="sacute" unicode="&#x15b;" horiz-adv-x="823" 
d="M596 1481l-178 -232h-119l154 232h143zM420 -25q-160 0 -258.5 94.5t-98.5 249.5h121q0 -106 63 -165.5t173 -59.5q100 0 155.5 48t55.5 134q0 53 -30.5 92.5t-79.5 64.5t-107.5 47t-117.5 48.5t-108 60.5t-79.5 90.5t-30.5 131.5q0 131 88.5 210t234.5 79
q151 0 242.5 -90.5t91.5 -239.5h-121q0 100 -56 156.5t-157 56.5q-95 0 -147.5 -46.5t-52.5 -129.5q0 -45 24 -80t62.5 -56.5t88.5 -43.5t101.5 -40t101.5 -46t88.5 -61t62.5 -86.5t24 -121.5q0 -134 -91.5 -215.5t-242.5 -81.5z" />
    <glyph glyph-name="Scedilla" unicode="&#x15e;" horiz-adv-x="923" 
d="M850 360q0 -70 -23 -135.5t-65.5 -119.5t-110.5 -89t-151 -41l-23 -77q8 2 29 2q59 0 102 -39t43 -99q0 -75 -52 -118t-136 -43q-74 0 -124 39.5t-56 109.5h100q6 -27 28.5 -42t55.5 -15q38 0 62 18.5t24 52.5q0 70 -80 70q-39 0 -63 -14l-35 33l37 122
q-155 17 -248 123.5t-98 270.5h127q4 -132 75 -202.5t193 -70.5q127 0 193.5 71.5t66.5 192.5q0 53 -21.5 99t-58.5 81.5t-84.5 68.5t-100.5 63.5t-105.5 62.5t-100 70t-84.5 80.5t-58.5 100t-21.5 124.5q0 150 103.5 250t267.5 100q166 0 266 -106.5t108 -278.5h-126
q-6 130 -71.5 196t-172.5 66q-116 0 -181 -61.5t-65 -165.5q0 -53 21.5 -98.5t58.5 -80.5t84.5 -67t100 -62t105.5 -61.5t100.5 -69.5t84.5 -81t58.5 -102t21.5 -128z" />
    <glyph glyph-name="scedilla" unicode="&#x15f;" horiz-adv-x="823" 
d="M754 272q0 -128 -85 -208.5t-227 -88.5l-22 -77q8 2 29 2q59 0 102 -39t43 -99q0 -75 -52 -118t-136 -43q-74 0 -124.5 39.5t-56.5 109.5h101q6 -27 28.5 -42t55.5 -15q38 0 62 18.5t24 52.5q0 70 -80 70q-40 0 -64 -14l-35 33l39 127q-134 19 -213.5 109.5t-79.5 229.5
h121q0 -106 63 -165.5t173 -59.5q100 0 155.5 48t55.5 134q0 53 -30.5 92.5t-79.5 64.5t-107.5 47t-117.5 48.5t-108 60.5t-79.5 90.5t-30.5 131.5q0 131 88.5 210t234.5 79q151 0 242.5 -90.5t91.5 -239.5h-121q0 100 -56 156.5t-157 56.5q-95 0 -147.5 -46.5t-52.5 -129.5
q0 -45 24 -80t62.5 -56.5t88.5 -43.5t101.5 -40t101.5 -46t88.5 -61t62.5 -86.5t24 -121.5z" />
    <glyph glyph-name="Scaron" unicode="&#x160;" horiz-adv-x="923" 
d="M528 1575h-131l-166 231h115l117 -143l117 143h114zM215 1110q0 -53 21.5 -98.5t58.5 -80.5t84.5 -67t100 -62t105.5 -61.5t100.5 -69.5t84.5 -81t58.5 -102t21.5 -128q0 -100 -42.5 -186.5t-132 -143.5t-210.5 -57q-178 0 -286 108.5t-113 287.5h127q4 -132 75 -202.5
t193 -70.5q127 0 193.5 71.5t66.5 192.5q0 53 -21.5 99t-58.5 81.5t-84.5 68.5t-100.5 63.5t-105.5 62.5t-100 70t-84.5 80.5t-58.5 100t-21.5 124.5q0 150 103.5 250t267.5 100q166 0 266 -106.5t108 -278.5h-126q-6 130 -71.5 196t-172.5 66q-116 0 -181 -61.5t-65 -165.5
z" />
    <glyph glyph-name="scaron" unicode="&#x161;" horiz-adv-x="823" 
d="M473 1249h-131l-166 232h115l117 -144l116 144h115zM201 807q0 -45 24 -80t62.5 -56.5t88.5 -43.5t101.5 -40t101.5 -46t88.5 -61t62.5 -86.5t24 -121.5q0 -134 -91.5 -215.5t-242.5 -81.5q-160 0 -258.5 94.5t-98.5 249.5h121q0 -106 63 -165.5t173 -59.5
q100 0 155.5 48t55.5 134q0 53 -30.5 92.5t-79.5 64.5t-107.5 47t-117.5 48.5t-108 60.5t-79.5 90.5t-30.5 131.5q0 131 88.5 210t234.5 79q151 0 242.5 -90.5t91.5 -239.5h-121q0 100 -56 156.5t-157 56.5q-95 0 -147.5 -46.5t-52.5 -129.5z" />
    <glyph glyph-name="uni0162" unicode="&#x162;" horiz-adv-x="831" 
d="M37 1434h758v-119h-316v-1315h-127v1315h-315v119zM317 -510l37 369h133l-75 -369h-95z" />
    <glyph glyph-name="uni0163" unicode="&#x163;" horiz-adv-x="608" 
d="M506 104h61v-114h-61q-147 0 -226 86.5t-79 242.5v644h-164v112h164v248h121v-248h221v-112h-221v-644q0 -215 184 -215zM254 -510l37 369h133l-76 -369h-94z" />
    <glyph glyph-name="Tcaron" unicode="&#x164;" horiz-adv-x="831" 
d="M479 1575h-131l-166 231h115l117 -143l116 143h115zM795 1434v-119h-316v-1315h-127v1315h-315v119h758z" />
    <glyph glyph-name="tcaron" unicode="&#x165;" horiz-adv-x="620" 
d="M580 1565l-66 -357h-86l18 357h134zM322 319q0 -215 184 -215h61v-114h-61q-147 0 -226 86.5t-79 242.5v644h-164v112h164v248h121v-248h221v-112h-221v-644z" />
    <glyph glyph-name="Tbar" unicode="&#x166;" horiz-adv-x="831" 
d="M795 1315h-316v-531h172v-94h-172v-690h-127v690h-172v94h172v531h-315v119h758v-119z" />
    <glyph glyph-name="tbar" unicode="&#x167;" horiz-adv-x="608" 
d="M506 104h61v-114h-61q-147 0 -226 86.5t-79 242.5v238h-127v94h127v312h-164v112h164v248h121v-248h221v-112h-221v-312h170v-94h-170v-238q0 -215 184 -215z" />
    <glyph glyph-name="Umacron" unicode="&#x16a;" horiz-adv-x="1052" 
d="M338 1739h377v-107h-377v107zM526 -18q-177 0 -284 114.5t-107 327.5v1010h127v-1010q0 -160 71 -240t193 -80t193.5 80t71.5 240v1010h127v-1010q0 -212 -107.5 -327t-284.5 -115z" />
    <glyph glyph-name="umacron" unicode="&#x16b;" horiz-adv-x="946" 
d="M659 1401v-103h-376v103h376zM690 1075h121v-1075h-100l-21 133q-91 -158 -278 -158q-137 0 -213 99.5t-76 312.5v688h121v-669q0 -164 46.5 -240t151.5 -76q113 0 180.5 89.5t67.5 244.5v651z" />
    <glyph glyph-name="Uring" unicode="&#x16e;" horiz-adv-x="1052" 
d="M383 1706q0 62 39.5 99.5t103.5 37.5q65 0 104.5 -38t39.5 -99q0 -63 -40 -102t-104 -39t-103.5 39t-39.5 102zM463 1704q0 -29 17 -46.5t46 -17.5q28 0 46 17.5t18 46.5q0 28 -18 45.5t-46 17.5q-29 0 -46 -17.5t-17 -45.5zM526 -18q-177 0 -284 114.5t-107 327.5v1010
h127v-1010q0 -160 71 -240t193 -80t193.5 80t71.5 240v1010h127v-1010q0 -212 -107.5 -327t-284.5 -115z" />
    <glyph glyph-name="uring" unicode="&#x16f;" horiz-adv-x="946" 
d="M471 1231q-64 0 -103.5 39t-39.5 102q0 62 39.5 99.5t103.5 37.5t103.5 -37.5t39.5 -99.5q0 -63 -39.5 -102t-103.5 -39zM471 1434q-29 0 -46 -18t-17 -46q0 -29 17 -46t46 -17q28 0 46 17t18 46q0 28 -18 46t-46 18zM690 1075h121v-1075h-100l-21 133
q-91 -158 -278 -158q-137 0 -213 99.5t-76 312.5v688h121v-669q0 -164 46.5 -240t151.5 -76q113 0 180.5 89.5t67.5 244.5v651z" />
    <glyph glyph-name="Uhungarumlaut" unicode="&#x170;" horiz-adv-x="1052" 
d="M610 1806l-168 -231h-108l139 231h137zM819 1806l-176 -231h-108l147 231h137zM526 -18q-177 0 -284 114.5t-107 327.5v1010h127v-1010q0 -160 71 -240t193 -80t193.5 80t71.5 240v1010h127v-1010q0 -212 -107.5 -327t-284.5 -115z" />
    <glyph glyph-name="uhungarumlaut" unicode="&#x171;" horiz-adv-x="946" 
d="M549 1470l-168 -231h-109l140 231h137zM582 1239h-109l148 231h137zM690 1075h121v-1075h-100l-21 133q-91 -158 -278 -158q-137 0 -213 99.5t-76 312.5v688h121v-669q0 -164 46.5 -240t151.5 -76q113 0 180.5 89.5t67.5 244.5v651z" />
    <glyph glyph-name="Uogonek" unicode="&#x172;" horiz-adv-x="1040" 
d="M670 -393q-89 0 -132.5 49t-43.5 119q0 125 143 243l-2 2q-51 -38 -113 -38q-174 0 -280.5 111.5t-106.5 309.5v1031h127v-1031q0 -146 70 -222.5t188 -76.5t188 76.5t70 222.5v1031h127v-1031q0 -87 -19.5 -153.5t-41.5 -98t-56 -65.5q-83 -85 -130.5 -155t-47.5 -132
q0 -80 78 -80q45 0 66 7v-107q-34 -12 -84 -12z" />
    <glyph glyph-name="uogonek" unicode="&#x173;" horiz-adv-x="946" 
d="M811 0q-57 -44 -95 -102t-38 -107q0 -72 80 -72q23 0 51 7v-107q-30 -12 -78 -12q-86 0 -128 48t-42 116q0 121 150 229l-21 133q-92 -158 -276 -158q-291 0 -291 412v688h121v-669q0 -163 46.5 -239.5t149.5 -76.5q116 0 183 89t67 245v651h121v-1075z" />
    <glyph glyph-name="Wcircumflex" unicode="&#x174;" horiz-adv-x="1458" 
d="M729 1718l-117 -143h-114l166 231h131l166 -231h-115zM1303 1434h133l-318 -1434h-141l-174 780q-20 84 -41 222.5t-29 228.5h-8q-8 -90 -29 -228.5t-41 -222.5l-174 -780h-141l-317 1434h133l180 -885q70 -362 70 -365h8q3 14 29.5 157t43.5 228l172 842h140l172 -842
q17 -85 43.5 -228t29.5 -157h9q3 19 69 365z" />
    <glyph glyph-name="wcircumflex" unicode="&#x175;" horiz-adv-x="1245" 
d="M616 1380l-116 -143h-115l166 231h131l166 -231h-115zM1102 1075h127l-266 -1075h-134l-131 535q-57 228 -73 364h-4q-15 -129 -74 -364l-131 -535h-133l-267 1075h127l133 -586q9 -37 70 -337h4q35 201 78 378l129 525h131l129 -525q43 -177 78 -378h4q61 300 70 337z
" />
    <glyph glyph-name="Ycircumflex" unicode="&#x176;" horiz-adv-x="864" 
d="M432 1718l-117 -143h-114l166 231h131l166 -231h-115zM719 1434h135l-358 -920v-514h-127v514l-359 920h135l205 -553q13 -37 40.5 -111t41.5 -111l82 224z" />
    <glyph glyph-name="ycircumflex" unicode="&#x177;" horiz-adv-x="792" 
d="M387 1391l-117 -144h-114l166 232h131l165 -232h-114zM649 1075h127l-362 -1206q-39 -131 -95.5 -195.5t-160.5 -64.5h-70v119h53q64 0 96 40t56 119l67 222l-344 966h129l269 -784z" />
    <glyph glyph-name="Ydieresis" unicode="&#x178;" horiz-adv-x="864" 
d="M299 1614q-37 0 -59.5 21.5t-22.5 58.5t22.5 58.5t59.5 21.5q36 0 58 -22t22 -58t-22 -58t-58 -22zM565 1614q-37 0 -60.5 22t-23.5 58t23.5 58t60.5 22t59.5 -21.5t22.5 -58.5t-22.5 -58.5t-59.5 -21.5zM369 0v514l-359 920h135l205 -553q13 -37 40.5 -111t41.5 -111
l82 224l205 551h135l-358 -920v-514h-127z" />
    <glyph glyph-name="Zacute" unicode="&#x179;" horiz-adv-x="837" 
d="M303 1575l189 231h147l-215 -231h-121zM190 119h584v-119h-733v96l569 1219h-542v119h696v-86z" />
    <glyph glyph-name="zacute" unicode="&#x17a;" horiz-adv-x="731" 
d="M545 1481l-178 -232h-119l153 232h144zM178 113h500v-113h-645v98l483 865h-461v112h607v-96z" />
    <glyph glyph-name="Zdotaccent" unicode="&#x17b;" horiz-adv-x="837" 
d="M399 1632q-44 0 -71 27.5t-27 71.5t27 71t71 27t71.5 -27t27.5 -71t-27.5 -71.5t-71.5 -27.5zM190 119h584v-119h-733v96l569 1219h-542v119h696v-86z" />
    <glyph glyph-name="zdotaccent" unicode="&#x17c;" horiz-adv-x="731" 
d="M354 1274q-44 0 -71 27t-27 71t27 71t71 27t71.5 -27t27.5 -71t-27.5 -71t-71.5 -27zM178 113h500v-113h-645v98l483 865h-461v112h607v-96z" />
    <glyph glyph-name="Zcaron" unicode="&#x17d;" horiz-adv-x="837" 
d="M465 1575h-131l-166 231h115l116 -143l117 143h115zM190 119h584v-119h-733v96l569 1219h-542v119h696v-86z" />
    <glyph glyph-name="zcaron" unicode="&#x17e;" horiz-adv-x="731" 
d="M422 1249h-131l-166 232h115l116 -144l117 144h115zM178 113h500v-113h-645v98l483 865h-461v112h607v-96z" />
    <glyph glyph-name="Scommaaccent" unicode="&#x218;" horiz-adv-x="923" 
d="M465 -27q-178 0 -286 108.5t-113 287.5h127q4 -132 75 -202.5t193 -70.5q127 0 193.5 71.5t66.5 192.5q0 53 -21.5 99t-58.5 81.5t-84.5 68.5t-100.5 63.5t-105.5 62.5t-100 70t-84.5 80.5t-58.5 100t-21.5 124.5q0 150 103.5 250t267.5 100q166 0 266 -106.5t108 -278.5
h-126q-6 130 -71.5 196t-172.5 66q-116 0 -181 -61.5t-65 -165.5q0 -53 21.5 -98.5t58.5 -80.5t84.5 -67t100 -62t105.5 -61.5t100.5 -69.5t84.5 -81t58.5 -102t21.5 -128q0 -100 -42.5 -186.5t-132 -143.5t-210.5 -57zM391 -510l37 369h133l-76 -369h-94z" />
    <glyph glyph-name="scommaaccent" unicode="&#x219;" horiz-adv-x="823" 
d="M420 -25q-160 0 -258.5 94.5t-98.5 249.5h121q0 -106 63 -165.5t173 -59.5q100 0 155.5 48t55.5 134q0 53 -30.5 92.5t-79.5 64.5t-107.5 47t-117.5 48.5t-108 60.5t-79.5 90.5t-30.5 131.5q0 131 88.5 210t234.5 79q151 0 242.5 -90.5t91.5 -239.5h-121q0 100 -56 156.5
t-157 56.5q-95 0 -147.5 -46.5t-52.5 -129.5q0 -45 24 -80t62.5 -56.5t88.5 -43.5t101.5 -40t101.5 -46t88.5 -61t62.5 -86.5t24 -121.5q0 -134 -91.5 -215.5t-242.5 -81.5zM334 -510l37 369h133l-76 -369h-94z" />
    <glyph glyph-name="uni021A" unicode="&#x21a;" horiz-adv-x="831" 
d="M37 1434h758v-119h-316v-1315h-127v1315h-315v119zM317 -510l37 369h133l-75 -369h-95z" />
    <glyph glyph-name="uni021B" unicode="&#x21b;" horiz-adv-x="608" 
d="M506 104h61v-114h-61q-147 0 -226 86.5t-79 242.5v644h-164v112h164v248h121v-248h221v-112h-221v-644q0 -215 184 -215zM254 -510l37 369h133l-76 -369h-94z" />
    <glyph glyph-name="gravecomb" unicode="&#x300;" 
d="M-297 1481h143l154 -232h-119z" />
    <glyph glyph-name="acutecomb" unicode="&#x301;" 
d="M0 1481l-178 -232h-119l154 232h143z" />
    <glyph glyph-name="uni0302" unicode="&#x302;" 
d="M0 1247h-115l-116 144l-117 -144h-115l166 232h131z" />
    <glyph glyph-name="tildecomb" unicode="&#x303;" 
d="M-299 1346q-33 0 -39 -60h-111q3 74 41 117t99 43q36 0 66.5 -16.5t53 -33t39.5 -16.5q42 0 48 60h102q-8 -75 -44 -117.5t-95 -42.5q-35 0 -65.5 16.5t-53.5 33t-41 16.5z" />
    <glyph glyph-name="uni0304" unicode="&#x304;" 
d="M-377 1411h377v-102h-377v102z" />
    <glyph glyph-name="uni0306" unicode="&#x306;" 
d="M-236 1243q-106 0 -166.5 62t-64.5 176h107q5 -69 34.5 -102t89.5 -33q61 0 90.5 33t34.5 102h107q-4 -114 -65 -176t-167 -62z" />
    <glyph glyph-name="uni0307" unicode="&#x307;" 
d="M-188 1274q-44 0 -71.5 27t-27.5 71t27.5 71t71.5 27t71 -27t27 -71t-27 -71t-71 -27z" />
    <glyph glyph-name="uni0308" unicode="&#x308;" 
d="M-324 1282q-37 0 -59.5 21.5t-22.5 58.5t22.5 58.5t59.5 21.5q36 0 58 -22t22 -58t-22 -58t-58 -22zM-82 1282q-37 0 -60.5 22t-23.5 58t23.5 58t60.5 22t59.5 -21.5t22.5 -58.5t-22.5 -58.5t-59.5 -21.5z" />
    <glyph glyph-name="uni030A" unicode="&#x30a;" 
d="M-317 1382q0 62 39.5 100t103.5 38t103.5 -38t39.5 -100q0 -63 -39.5 -102t-103.5 -39t-103.5 39t-39.5 102zM-238 1380q0 -29 17.5 -46t46.5 -17q28 0 45.5 17t17.5 46q0 28 -17.5 46t-45.5 18q-29 0 -46.5 -18t-17.5 -46z" />
    <glyph glyph-name="uni030B" unicode="&#x30b;" 
d="M-209 1481l-168 -232h-108l139 232h137zM0 1481l-176 -232h-109l148 232h137z" />
    <glyph glyph-name="uni030C" unicode="&#x30c;" 
d="M-115 1481h115l-166 -232h-131l-166 232h115l117 -144z" />
    <glyph glyph-name="uni0312" unicode="&#x312;" 
d="M-86 1604l86 -363h-137l-37 363h88z" />
    <glyph glyph-name="uni0326" unicode="&#x326;" 
d="M-174 -510l37 369h133l-76 -369h-94z" />
    <glyph glyph-name="uni0327" unicode="&#x327;" 
d="M-223 -399q-74 0 -124 39.5t-56 109.5h100q6 -27 28.5 -42t55.5 -15q38 0 62 18.5t24 52.5q0 70 -80 70q-38 0 -63 -14l-35 33l45 147h88l-31 -102q8 2 29 2q59 0 102 -39t43 -99q0 -75 -52 -118t-136 -43z" />
    <glyph glyph-name="uni0328" unicode="&#x328;" 
d="M0 -381q-34 -12 -84 -12q-89 0 -132.5 48.5t-43.5 117.5q0 120 123 227h112q-50 -43 -84 -101.5t-34 -105.5q0 -38 22.5 -56t54.5 -18q45 0 66 7v-107z" />
    <glyph glyph-name="uni0335" unicode="&#x335;" 
d="M-430 762v94h410v-94h-410z" />
    <glyph glyph-name="uni0336" unicode="&#x336;" 
d="M-676 856h656v-94h-656v94z" />
    <glyph glyph-name="uni0337" unicode="&#x337;" 
d="M-494 -90l334 1216h121l-334 -1216h-121z" />
    <glyph glyph-name="uni0338" unicode="&#x338;" 
d="M-680 -76l440 1585h121l-440 -1585h-121z" />
    <glyph glyph-name="uni0401" unicode="&#x401;" horiz-adv-x="929" 
d="M367 1614q-37 0 -59.5 21.5t-22.5 58.5t22.5 58.5t59.5 21.5q35 0 57 -22t22 -58t-22 -58t-57 -22zM633 1614q-37 0 -60.5 22t-23.5 58t23.5 58t60.5 22t59.5 -21.5t22.5 -58.5t-22.5 -58.5t-59.5 -21.5zM285 117h563v-117h-690v1434h667v-117h-540v-531h506v-116h-506
v-553z" />
    <glyph glyph-name="uni0402" unicode="&#x402;" horiz-adv-x="1130" 
d="M733 1090q145 0 217 -109t72 -340v-305q0 -168 -85.5 -259.5t-258.5 -92.5v116q121 3 172 59.5t51 176.5v295q0 183 -46.5 263.5t-147.5 80.5q-113 0 -180.5 -89.5t-67.5 -244.5v-641h-127v1315h-295v119h717v-119h-295v-381q91 156 274 156z" />
    <glyph glyph-name="uni0403" unicode="&#x403;" horiz-adv-x="847" 
d="M684 1806l-215 -231h-121l189 231h147zM811 1434v-119h-526v-1315h-127v1434h653z" />
    <glyph glyph-name="uni0404" unicode="&#x404;" horiz-adv-x="983" 
d="M788 389h123q-15 -197 -119.5 -305.5t-281.5 -108.5q-176 0 -283.5 114t-107.5 317v622q0 203 105 316.5t278 113.5q176 0 281.5 -108t115.5 -306h-123q-10 150 -80.5 224.5t-193.5 74.5q-120 0 -190 -80t-70 -235v-240h438v-118h-438v-264q0 -155 72.5 -235.5
t195.5 -80.5q248 0 278 299z" />
    <glyph glyph-name="uni0405" unicode="&#x405;" horiz-adv-x="923" 
d="M465 -27q-178 0 -286 108.5t-113 287.5h127q4 -132 75 -202.5t193 -70.5q127 0 193.5 71.5t66.5 192.5q0 53 -21.5 99t-58.5 81.5t-84.5 68.5t-100.5 63.5t-105.5 62.5t-100 70t-84.5 80.5t-58.5 100t-21.5 124.5q0 150 103.5 250t267.5 100q166 0 266 -106.5t108 -278.5
h-126q-6 130 -71.5 196t-172.5 66q-116 0 -181 -61.5t-65 -165.5q0 -53 21.5 -98.5t58.5 -80.5t84.5 -67t100 -62t105.5 -61.5t100.5 -69.5t84.5 -81t58.5 -102t21.5 -128q0 -100 -42.5 -186.5t-132 -143.5t-210.5 -57z" />
    <glyph glyph-name="uni0406" unicode="&#x406;" horiz-adv-x="442" 
d="M158 1434h127v-1434h-127v1434z" />
    <glyph glyph-name="uni0407" unicode="&#x407;" horiz-adv-x="442" 
d="M92 1614q-37 0 -59.5 21.5t-22.5 58.5t22.5 58.5t59.5 21.5q36 0 58 -22t22 -58t-22 -58t-58 -22zM358 1614q-37 0 -60.5 22t-23.5 58t23.5 58t60.5 22t59.5 -21.5t22.5 -58.5t-22.5 -58.5t-59.5 -21.5zM158 1434h127v-1434h-127v1434z" />
    <glyph glyph-name="uni0408" unicode="&#x408;" horiz-adv-x="507" 
d="M0 -166v121q118 0 174.5 64.5t56.5 220.5v1194h127v-1194q0 -406 -358 -406z" />
    <glyph glyph-name="uni0409" unicode="&#x409;" horiz-adv-x="1474" 
d="M0 -18v120q121 0 145 193q33 250 60 1139h592v-600h211q194 0 308 -110t114 -302q0 -197 -114.5 -309.5t-307.5 -112.5h-338v1315h-344q-30 -839 -58 -1039q-21 -141 -87.5 -217.5t-180.5 -76.5zM797 121h211q136 0 214 78t78 223q0 140 -78 215.5t-214 75.5h-211v-592z
" />
    <glyph glyph-name="uni040A" unicode="&#x40a;" horiz-adv-x="1581" 
d="M1118 819q192 0 305 -105.5t113 -291.5q0 -197 -113 -309.5t-305 -112.5h-338v698h-495v-698h-127v1434h127v-617h495v617h127v-615h211zM1118 121q134 0 211.5 78t77.5 223q0 133 -77.5 204.5t-211.5 71.5h-211v-577h211z" />
    <glyph glyph-name="uni040B" unicode="&#x40b;" horiz-adv-x="1144" 
d="M733 1090q145 0 217 -109t72 -340v-641h-121v631q0 183 -46.5 263.5t-147.5 80.5q-113 0 -180.5 -89.5t-67.5 -244.5v-641h-127v1315h-295v119h717v-119h-295v-381q91 156 274 156z" />
    <glyph glyph-name="uni040C" unicode="&#x40c;" horiz-adv-x="983" 
d="M698 1806l-215 -231h-121l189 231h147zM831 0l-444 698l-102 -139v-559h-127v1434h127v-684l116 168l367 516h158l-457 -625l514 -809h-152z" />
    <glyph glyph-name="uni040D" unicode="&#x40d;" horiz-adv-x="1103" 
d="M639 1575h-121l-215 231h148zM158 0v1434h127v-908q0 -166 -6 -274l6 -2q37 100 100 233l418 951h143v-1434h-127v944l2 240l-4 2q-5 -15 -19 -49t-32 -76.5t-25 -59.5l-444 -1001h-139z" />
    <glyph glyph-name="uni040E" unicode="&#x40e;" horiz-adv-x="825" 
d="M420 1569q-106 0 -167 61.5t-65 175.5h107q5 -69 34.5 -102t90.5 -33t90.5 33t34.5 102h106q-4 -114 -64.5 -175.5t-166.5 -61.5zM682 1434h131l-360 -1178q-40 -130 -114.5 -202t-199.5 -72h-49v120h49q78 0 124 50.5t73 142.5l47 151l-367 988h136l286 -803z" />
    <glyph glyph-name="uni040F" unicode="&#x40f;" horiz-adv-x="1079" 
d="M479 -236v236h-321v1434h127v-1315h510v1315h127v-1434h-320v-236h-123z" />
    <glyph glyph-name="uni0410" unicode="&#x410;" horiz-adv-x="937" 
d="M780 0l-84 336h-454l-84 -336h-135l376 1434h140l376 -1434h-135zM270 451h398l-148 593q-30 114 -49 226h-4q-19 -112 -49 -226z" />
    <glyph glyph-name="uni0411" unicode="&#x411;" horiz-adv-x="1001" 
d="M520 852q186 0 299 -112.5t113 -307.5q0 -201 -113 -316.5t-299 -115.5h-362v1434h696v-119h-569v-463h235zM520 119q128 0 205.5 81t77.5 232q0 145 -77.5 223t-205.5 78h-235v-614h235z" />
    <glyph glyph-name="uni0412" unicode="&#x412;" horiz-adv-x="1009" 
d="M688 743q116 -27 181 -118t65 -234q0 -190 -107.5 -290.5t-300.5 -100.5h-368v1434h336q180 0 280 -97.5t100 -275.5q0 -131 -49.5 -212.5t-136.5 -105.5zM494 1315h-209v-520h213q247 0 247 266q0 130 -61.5 192t-189.5 62zM526 119q141 0 210 66t69 206
q0 137 -81.5 211t-219.5 74h-219v-557h241z" />
    <glyph glyph-name="uni0413" unicode="&#x413;" horiz-adv-x="847" 
d="M811 1434v-119h-526v-1315h-127v1434h653z" />
    <glyph glyph-name="uni0414" unicode="&#x414;" horiz-adv-x="1058" 
d="M879 119h122v-355h-122v236h-742v-236h-123v355h78q64 62 107 204t49 328l24 783h607v-1315zM752 119v1196h-359l-24 -697q-11 -329 -119 -499h502z" />
    <glyph glyph-name="uni0415" unicode="&#x415;" horiz-adv-x="929" 
d="M285 117h563v-117h-690v1434h667v-117h-540v-531h506v-116h-506v-553z" />
    <glyph glyph-name="uni0416" unicode="&#x416;" horiz-adv-x="1417" 
d="M1266 0l-430 662l-66 -93v-569h-123v569l-65 93l-430 -662h-152l504 772l-471 662h149l465 -672v672h123v-674l133 194l332 480h149l-471 -662l504 -772h-151z" />
    <glyph glyph-name="uni0417" unicode="&#x417;" horiz-adv-x="991" 
d="M635 741q260 -71 260 -358q0 -190 -111.5 -300t-291.5 -110q-184 0 -296.5 113.5t-121.5 296.5h129q9 -132 83 -209.5t201 -77.5q126 0 203.5 77.5t77.5 209.5q0 141 -86 218t-221 77h-117v119h102q132 0 211.5 68t79.5 208q0 126 -66.5 195t-187.5 69q-240 0 -262 -290
h-127q11 194 111.5 303.5t279.5 109.5q173 0 276 -104.5t103 -292.5q0 -127 -54 -206.5t-175 -115.5z" />
    <glyph glyph-name="uni0418" unicode="&#x418;" horiz-adv-x="1103" 
d="M158 0v1434h127v-908q0 -166 -6 -274l6 -2q37 100 100 233l418 951h143v-1434h-127v944l2 240l-4 2q-5 -15 -19 -49t-32 -76.5t-25 -59.5l-444 -1001h-139z" />
    <glyph glyph-name="uni0419" unicode="&#x419;" horiz-adv-x="1103" 
d="M553 1569q-106 0 -166.5 61.5t-64.5 175.5h106q5 -69 34.5 -102t90.5 -33t90.5 33t34.5 102h106q-4 -114 -64.5 -175.5t-166.5 -61.5zM158 0v1434h127v-908q0 -166 -6 -274l6 -2q37 100 100 233l418 951h143v-1434h-127v944l2 240l-4 2q-5 -15 -19 -49t-32 -76.5
t-25 -59.5l-444 -1001h-139z" />
    <glyph glyph-name="uni041A" unicode="&#x41a;" horiz-adv-x="983" 
d="M831 0l-444 698l-102 -139v-559h-127v1434h127v-684l116 168l367 516h158l-457 -625l514 -809h-152z" />
    <glyph glyph-name="uni041B" unicode="&#x41b;" horiz-adv-x="989" 
d="M215 1434h616v-1434h-126v1315h-369q-33 -837 -62 -1039q-18 -140 -86.5 -217t-187.5 -77v120q67 0 104.5 51.5t47.5 141.5q34 289 63 1139z" />
    <glyph glyph-name="uni041C" unicode="&#x41c;" horiz-adv-x="1335" 
d="M1042 1434h136v-1434h-127v758q0 214 12 405l-8 2q-21 -58 -75 -193t-73 -184l-176 -450h-127l-176 450q-15 40 -70.5 179t-76.5 198l-9 -2q13 -206 13 -405v-758h-127v1434h135l256 -619q46 -113 115 -319h8q75 221 114 319z" />
    <glyph glyph-name="uni041D" unicode="&#x41d;" horiz-adv-x="1079" 
d="M795 1434h127v-1434h-127v670h-510v-670h-127v1434h127v-646h510v646z" />
    <glyph glyph-name="uni041E" unicode="&#x41e;" horiz-adv-x="1060" 
d="M530 -27q-192 0 -301.5 126.5t-109.5 344.5v545q0 218 109.5 344.5t301.5 126.5q193 0 302.5 -126.5t109.5 -344.5v-545q0 -218 -109.5 -344.5t-302.5 -126.5zM530 96q138 0 210.5 90.5t72.5 257.5v545q0 167 -72.5 257.5t-210.5 90.5t-210 -90.5t-72 -257.5v-545
q0 -167 72 -257.5t210 -90.5z" />
    <glyph glyph-name="uni041F" unicode="&#x41f;" horiz-adv-x="1079" 
d="M922 1434v-1434h-127v1315h-510v-1315h-127v1434h764z" />
    <glyph glyph-name="uni0420" unicode="&#x420;" horiz-adv-x="983" 
d="M502 1434q197 0 303 -115t106 -326q0 -220 -105 -335t-304 -115h-217v-543h-127v1434h344zM502 664q145 0 213.5 79.5t68.5 249.5q0 161 -69 240.5t-213 79.5h-217v-649h217z" />
    <glyph glyph-name="uni0421" unicode="&#x421;" horiz-adv-x="983" 
d="M510 -25q-176 0 -283.5 114t-107.5 317v622q0 203 105 316.5t278 113.5q176 0 281.5 -108t115.5 -306h-123q-10 150 -80.5 224.5t-193.5 74.5q-120 0 -190 -80t-70 -235v-622q0 -155 72.5 -235.5t195.5 -80.5q248 0 278 299h123q-15 -197 -119.5 -305.5t-281.5 -108.5z
" />
    <glyph glyph-name="uni0422" unicode="&#x422;" horiz-adv-x="831" 
d="M795 1434v-119h-316v-1315h-127v1315h-315v119h758z" />
    <glyph glyph-name="uni0423" unicode="&#x423;" horiz-adv-x="825" 
d="M682 1434h131l-360 -1178q-40 -130 -114.5 -202t-199.5 -72h-49v120h49q78 0 124 50.5t73 142.5l47 151l-367 988h136l286 -803z" />
    <glyph glyph-name="uni0424" unicode="&#x424;" horiz-adv-x="1325" 
d="M598 -115v160h-39q-229 0 -356 133t-127 379v322q0 246 127 379t356 133h39v149h127v-149h39q230 0 357.5 -133t127.5 -379v-322q0 -246 -127.5 -379t-357.5 -133h-39v-160h-127zM559 168h39v1100h-39q-354 0 -354 -389v-322q0 -389 354 -389zM725 168h39q356 0 356 389
v322q0 389 -356 389h-39v-1100z" />
    <glyph glyph-name="uni0425" unicode="&#x425;" horiz-adv-x="919" 
d="M881 0h-142l-278 625l-279 -625h-141l346 745l-328 689h142l260 -572l260 572h141l-327 -689z" />
    <glyph glyph-name="uni0426" unicode="&#x426;" horiz-adv-x="1095" 
d="M915 -236v236h-757v1434h127v-1315h499v1315h127v-1315h127v-355h-123z" />
    <glyph glyph-name="uni0427" unicode="&#x427;" horiz-adv-x="1005" 
d="M721 1434h127v-1434h-127v565q-107 -47 -211 -47q-197 0 -311.5 113t-114.5 319v484h127v-484q0 -154 79.5 -232.5t219.5 -78.5q104 0 211 47v748z" />
    <glyph glyph-name="uni0428" unicode="&#x428;" horiz-adv-x="1617" 
d="M158 0v1434h127v-1315h460v1315h127v-1315h461v1315h127v-1434h-1302z" />
    <glyph glyph-name="uni0429" unicode="&#x429;" horiz-adv-x="1640" 
d="M1460 119h123v-355h-123v236h-1302v1434h127v-1315h460v1315h127v-1315h461v1315h127v-1315z" />
    <glyph glyph-name="uni042A" unicode="&#x42a;" horiz-adv-x="1087" 
d="M281 0v1315h-246v119h373v-592h210q195 0 309.5 -111t114.5 -305q0 -198 -114.5 -312t-309.5 -114h-337zM408 121h210q137 0 216 79t79 226q0 142 -79 218.5t-216 76.5h-210v-600z" />
    <glyph glyph-name="uni042B" unicode="&#x42b;" horiz-adv-x="1398" 
d="M158 0v1434h127v-600h204q194 0 308 -110t114 -302q0 -197 -114.5 -309.5t-307.5 -112.5h-331zM1114 0v1434h127v-1434h-127zM285 121h204q136 0 214.5 78t78.5 223q0 140 -78.5 215.5t-214.5 75.5h-204v-592z" />
    <glyph glyph-name="uni042C" unicode="&#x42c;" horiz-adv-x="974" 
d="M158 0v1434h127v-598h239q183 0 294.5 -110.5t111.5 -301.5q0 -197 -111.5 -310.5t-294.5 -113.5h-366zM285 119h239q125 0 201 79t76 226q0 141 -76 217t-201 76h-239v-598z" />
    <glyph glyph-name="uni042D" unicode="&#x42d;" horiz-adv-x="983" 
d="M481 1458q173 0 278 -113.5t105 -316.5v-622q0 -203 -107.5 -317t-283.5 -114q-177 0 -281.5 108.5t-119.5 305.5h123q30 -299 278 -299q123 0 195.5 80.5t72.5 235.5v264h-438v118h438v240q0 155 -70 235t-190 80q-123 0 -193.5 -74.5t-80.5 -224.5h-123
q10 198 115.5 306t281.5 108z" />
    <glyph glyph-name="uni042E" unicode="&#x42e;" horiz-adv-x="1480" 
d="M952 1452q194 0 302 -129.5t108 -361.5v-488q0 -232 -108 -361.5t-302 -129.5q-193 0 -301 129.5t-108 361.5v197h-258v-670h-127v1434h127v-646h258v173q0 232 108 361.5t301 129.5zM1233 473v488q0 181 -71.5 274.5t-209.5 93.5t-209 -93.5t-71 -274.5v-488
q0 -182 71 -275.5t209 -93.5t209.5 94t71.5 275z" />
    <glyph glyph-name="uni042F" unicode="&#x42f;" horiz-adv-x="980" 
d="M57 0l349 575q-150 26 -232 137.5t-82 284.5q0 206 108.5 321.5t299.5 115.5h323v-1434h-127v567h-151l-340 -567h-148zM496 686h200v629h-196q-138 0 -208.5 -78.5t-70.5 -232.5q0 -153 70.5 -235.5t204.5 -82.5z" />
    <glyph glyph-name="uni0430" unicode="&#x430;" horiz-adv-x="915" 
d="M451 1100q153 0 241 -96t88 -261v-743h-104l-10 100q-85 -125 -248 -125q-151 0 -245.5 88t-94.5 242q0 155 95.5 238.5t272.5 83.5h213v114q0 118 -54.5 180t-158.5 62q-93 0 -151 -50t-64 -138h-120q6 138 98.5 221.5t241.5 83.5zM436 94q102 0 162.5 58t60.5 151v211
h-217q-118 0 -179.5 -54t-61.5 -157t63.5 -156t171.5 -53z" />
    <glyph glyph-name="uni0431" unicode="&#x431;" horiz-adv-x="946" 
d="M516 1022q145 0 233.5 -100.5t88.5 -278.5v-276q0 -185 -95 -286t-258 -101q-161 0 -255.5 101t-94.5 286v602q0 87 26 158t63 114.5t88.5 77t91.5 48.5t83 26q74 17 115.5 41.5t75.5 83.5l98 -70q-18 -40 -46 -70.5t-64 -50.5t-70 -32.5t-78 -24.5q-37 -9 -61 -17
t-58.5 -23t-56.5 -36t-43.5 -51t-32 -74.5t-10.5 -99.5v-82q84 135 260 135zM715 367v254q0 144 -58.5 213t-164.5 69q-46 0 -86 -14t-74.5 -43.5t-54 -83.5t-19.5 -127v-268q0 -135 59.5 -202t167.5 -67q110 0 170 67t60 202z" />
    <glyph glyph-name="uni0432" unicode="&#x432;" horiz-adv-x="866" 
d="M623 569q81 -31 128.5 -104.5t47.5 -155.5q0 -148 -90 -228.5t-260 -80.5h-314v1073h283q155 0 241 -77t86 -210q0 -59 -32 -118t-90 -99zM254 958v-344h162q102 0 155.5 45.5t53.5 126.5q0 83 -53 127.5t-156 44.5h-162zM446 115q232 0 232 194q0 92 -58.5 141.5
t-173.5 49.5h-192v-385h192z" />
    <glyph glyph-name="uni0433" unicode="&#x433;" horiz-adv-x="700" 
d="M670 1075v-117h-414v-958h-121v1075h535z" />
    <glyph glyph-name="uni0434" unicode="&#x434;" horiz-adv-x="911" 
d="M0 -236v351h78q84 160 106 485q16 261 19 475h557v-960h119v-351h-119v236h-641v-236h-119zM211 115h428v846h-322q-3 -220 -16 -379q-23 -306 -90 -467z" />
    <glyph glyph-name="uni0435" unicode="&#x435;" horiz-adv-x="921" 
d="M709 330h120q-12 -169 -108.5 -259.5t-265.5 -90.5q-159 0 -252.5 100t-93.5 282v355q0 182 94.5 282.5t253.5 100.5q164 0 261 -100.5t97 -282.5v-238h-584v-117q0 -132 60 -198t168 -66q117 0 177.5 56.5t72.5 175.5zM459 981q-108 0 -168 -66t-60 -198v-125h463v125
q0 132 -61 198t-174 66z" />
    <glyph glyph-name="uni0436" unicode="&#x436;" horiz-adv-x="1214" 
d="M1069 0l-332 512l-71 -92v-420h-117v420l-72 92l-332 -512h-145l403 604l-372 471h151l201 -264q119 -156 166 -219v483h117v-483q82 111 165 219l201 264h152l-373 -471l403 -604h-145z" />
    <glyph glyph-name="uni0437" unicode="&#x437;" horiz-adv-x="827" 
d="M582 563q79 -29 131.5 -97.5t52.5 -158.5q0 -145 -99.5 -236t-254.5 -91q-164 0 -262.5 90t-104.5 231h121q6 -92 70 -147.5t176 -55.5q107 0 169 56.5t62 158.5q0 86 -62.5 136.5t-174.5 50.5h-156v112h147q98 0 155.5 45t57.5 131q0 82 -54 133.5t-148 51.5
q-104 0 -157.5 -50.5t-60.5 -158.5h-120q8 158 94.5 242t243.5 84q138 0 230.5 -85.5t92.5 -205.5q0 -87 -41.5 -147.5t-107.5 -88.5z" />
    <glyph glyph-name="uni0438" unicode="&#x438;" horiz-adv-x="931" 
d="M135 0v1075h121v-614q0 -189 -4 -242l4 -4q22 52 72 160l344 700h125v-1075h-121v580q0 114 8 286l-4 2q-13 -44 -86 -194l-334 -674h-125z" />
    <glyph glyph-name="uni0439" unicode="&#x439;" horiz-adv-x="931" 
d="M467 1243q-106 0 -166.5 62t-64.5 176h106q5 -69 34.5 -102t90.5 -33t90.5 33t34.5 102h106q-4 -114 -64.5 -176t-166.5 -62zM135 0v1075h121v-614q0 -189 -4 -242l4 -4q22 52 72 160l344 700h125v-1075h-121v580q0 114 8 286l-4 2q-13 -44 -86 -194l-334 -674h-125z" />
    <glyph glyph-name="uni043A" unicode="&#x43a;" horiz-adv-x="864" 
d="M715 0l-375 514l-84 -102v-412h-121v1075h121v-487q93 110 160 194l239 293h156l-391 -467l444 -608h-149z" />
    <glyph glyph-name="uni043B" unicode="&#x43b;" horiz-adv-x="882" 
d="M10 -8v117q31 0 55 13t41 40.5t28.5 59.5t19 80.5t12 91.5t8.5 104q14 236 21 577h553v-1075h-121v961h-314q-4 -180 -20 -482q-14 -252 -78.5 -369.5t-204.5 -117.5z" />
    <glyph glyph-name="uni043C" unicode="&#x43c;" horiz-adv-x="1101" 
d="M842 1075h125v-1075h-117v592q0 60 4.5 148.5t5.5 115.5l-6 2q-61 -173 -94 -248l-148 -327h-123l-147 327q-33 75 -94 248l-6 -2q1 -27 5.5 -115.5t4.5 -148.5v-592h-117v1075h125l219 -489q12 -28 35.5 -84.5t34.5 -85.5h4q12 29 35 85.5t35 84.5z" />
    <glyph glyph-name="uni043D" unicode="&#x43d;" horiz-adv-x="921" 
d="M666 1075h120v-1075h-120v500h-410v-500h-121v1075h121v-461h410v461z" />
    <glyph glyph-name="uni043E" unicode="&#x43e;" horiz-adv-x="933" 
d="M467 -25q-164 0 -261 102t-97 288v346q0 186 97 287.5t261 101.5t261 -101.5t97 -287.5v-346q0 -186 -97 -288t-261 -102zM467 94q112 0 173.5 67.5t61.5 203.5v346q0 136 -61.5 203t-173.5 67t-174 -67t-62 -203v-346q0 -136 62 -203.5t174 -67.5z" />
    <glyph glyph-name="uni043F" unicode="&#x43f;" horiz-adv-x="921" 
d="M786 1075v-1075h-120v961h-410v-961h-121v1075h651z" />
    <glyph glyph-name="uni0440" unicode="&#x440;" horiz-adv-x="946" 
d="M504 1100q151 0 242.5 -107t91.5 -305v-309q0 -197 -88 -300.5t-246 -103.5q-75 0 -141 30.5t-109 90.5v-465h-119v1444h98l17 -100q43 60 109.5 92.5t144.5 32.5zM715 379v309q0 299 -238 299q-98 0 -160.5 -75.5t-62.5 -219.5v-313q0 -130 61 -210.5t162 -80.5
q120 0 179 69.5t59 221.5z" />
    <glyph glyph-name="uni0441" unicode="&#x441;" horiz-adv-x="884" 
d="M453 -20q-158 0 -251 100t-93 282v355q0 182 93 282.5t251 100.5q161 0 255.5 -100t98.5 -283h-123q-9 264 -231 264q-105 0 -163.5 -66t-58.5 -198v-355q0 -132 58.5 -198t163.5 -66q224 0 233 264h123q-4 -182 -99 -282t-257 -100z" />
    <glyph glyph-name="uni0442" unicode="&#x442;" horiz-adv-x="702" 
d="M678 1075v-112h-266v-963h-121v963h-266v112h653z" />
    <glyph glyph-name="uni0443" unicode="&#x443;" horiz-adv-x="792" 
d="M649 1075h127l-362 -1206q-39 -131 -95.5 -195.5t-160.5 -64.5h-70v119h53q64 0 96 40t56 119l67 222l-344 966h129l269 -784z" />
    <glyph glyph-name="uni0444" unicode="&#x444;" horiz-adv-x="1257" 
d="M741 1092q175 0 291.5 -115t116.5 -311v-267q0 -128 -56 -223.5t-147.5 -143.5t-204.5 -48h-53v-353h-119v353h-53q-113 0 -204.5 48t-147 143.5t-55.5 223.5v267q0 131 55 229t146.5 147.5t205.5 49.5h53v383h119v-383h53zM516 102h53v871h-53q-125 0 -205 -79t-80 -228
v-267q0 -143 80.5 -220t204.5 -77zM1026 399v267q0 149 -80 228t-205 79h-53v-871h53q124 0 204.5 77t80.5 220z" />
    <glyph glyph-name="uni0445" unicode="&#x445;" horiz-adv-x="778" 
d="M768 0h-141l-238 438l-237 -438h-142l309 537l-294 538h137l227 -422l227 422h138l-293 -538z" />
    <glyph glyph-name="uni0446" unicode="&#x446;" horiz-adv-x="944" 
d="M778 -236v236h-643v1075h121v-960h401v960h121v-960h119v-351h-119z" />
    <glyph glyph-name="uni0447" unicode="&#x447;" horiz-adv-x="870" 
d="M614 1075h121v-1075h-121v406q-83 -44 -215 -44q-143 0 -237 109.5t-94 312.5v291h120v-291q0 -155 61 -229t161 -74q63 0 110.5 8.5t93.5 36.5v549z" />
    <glyph glyph-name="uni0448" unicode="&#x448;" horiz-adv-x="1404" 
d="M1149 1075h121v-1075h-1147v1075h121v-960h391v960h123v-960h391v960z" />
    <glyph glyph-name="uni0449" unicode="&#x449;" horiz-adv-x="1443" 
d="M1282 113h115v-349h-115v236h-1147v1075h121v-960h391v960h123v-960h391v960h121v-962z" />
    <glyph glyph-name="uni044A" unicode="&#x44a;" horiz-adv-x="940" 
d="M559 696q148 0 250 -98t102 -248q0 -152 -102 -251t-250 -99h-317v963h-217v112h337v-379h197zM559 117q98 0 163.5 64.5t65.5 168.5q0 103 -65.5 166.5t-163.5 63.5h-197v-463h197z" />
    <glyph glyph-name="uni044B" unicode="&#x44b;" horiz-adv-x="1224" 
d="M453 680q148 0 250 -95.5t102 -242.5q0 -149 -102 -245.5t-250 -96.5h-318v1065h121v-385h197zM969 1065h121v-1065h-121v1065zM453 117q99 0 164 62t65 163q0 99 -65 160t-164 61h-197v-446h197z" />
    <glyph glyph-name="uni044C" unicode="&#x44c;" horiz-adv-x="833" 
d="M453 696q148 0 250 -98t102 -248q0 -152 -102 -251t-250 -99h-318v1075h121v-379h197zM453 117q98 0 163.5 64.5t65.5 168.5q0 103 -65.5 166.5t-163.5 63.5h-197v-463h197z" />
    <glyph glyph-name="uni044D" unicode="&#x44d;" horiz-adv-x="884" 
d="M432 1100q158 0 251 -100.5t93 -282.5v-355q0 -182 -93 -282t-251 -100q-162 0 -257 100t-99 282h123q9 -264 233 -264q105 0 163 66t58 198v125h-370v113h370v117q0 132 -58 198t-163 66q-222 0 -231 -264h-123q4 183 98.5 283t255.5 100z" />
    <glyph glyph-name="uni044E" unicode="&#x44e;" horiz-adv-x="1251" 
d="M797 1100q159 0 252.5 -101t93.5 -286v-346q0 -185 -93.5 -286t-252.5 -101t-252.5 101t-93.5 286v127h-195v-494h-121v1075h121v-465h195v103q0 185 93.5 286t252.5 101zM1020 367v346q0 135 -58 201.5t-165 66.5t-165.5 -66.5t-58.5 -201.5v-346q0 -135 58.5 -202
t165.5 -67t165 67t58 202z" />
    <glyph glyph-name="uni044F" unicode="&#x44f;" horiz-adv-x="821" 
d="M401 1075h297v-1075h-120v393h-164l-246 -393h-143l260 399q-102 22 -163 112.5t-61 221.5q0 154 93 248t247 94zM578 506v452h-177q-103 0 -160 -59.5t-57 -165.5q0 -110 52 -168.5t153 -58.5h189z" />
    <glyph glyph-name="uni0451" unicode="&#x451;" horiz-adv-x="921" 
d="M330 1282q-37 0 -59.5 21.5t-22.5 58.5t22.5 58.5t59.5 21.5q36 0 58 -22t22 -58t-22 -58t-58 -22zM571 1282q-37 0 -60.5 22t-23.5 58t23.5 58t60.5 22t59.5 -21.5t22.5 -58.5t-22.5 -58.5t-59.5 -21.5zM709 330h120q-12 -169 -108.5 -259.5t-265.5 -90.5
q-159 0 -252.5 100t-93.5 282v355q0 182 94.5 282.5t253.5 100.5q164 0 261 -100.5t97 -282.5v-238h-584v-117q0 -132 60 -198t168 -66q117 0 177.5 56.5t72.5 175.5zM459 981q-108 0 -168 -66t-60 -198v-125h463v125q0 132 -61 198t-174 66z" />
    <glyph glyph-name="uni0452" unicode="&#x452;" horiz-adv-x="954" 
d="M543 1100q288 0 288 -451v-737q0 -154 -86 -242.5t-258 -89.5v117q119 3 171.5 56.5t52.5 158.5v727q0 183 -48 264.5t-151 81.5q-114 0 -181 -89.5t-67 -246.5v-649h-121v1260h-131v94h131v127h121v-127h199v-94h-199v-320q92 160 279 160z" />
    <glyph glyph-name="uni0453" unicode="&#x453;" horiz-adv-x="700" 
d="M582 1481l-179 -232h-118l153 232h144zM670 1075v-117h-414v-958h-121v1075h535z" />
    <glyph glyph-name="uni0454" unicode="&#x454;" horiz-adv-x="884" 
d="M686 362h123q-4 -182 -99 -282t-257 -100q-158 0 -251 100t-93 282v355q0 182 93 282.5t251 100.5q161 0 255.5 -100t98.5 -283h-123q-9 264 -231 264q-105 0 -163.5 -66t-58.5 -198v-117h371v-113h-371v-125q0 -132 58.5 -198t163.5 -66q224 0 233 264z" />
    <glyph glyph-name="uni0455" unicode="&#x455;" horiz-adv-x="823" 
d="M420 -25q-160 0 -258.5 94.5t-98.5 249.5h121q0 -106 63 -165.5t173 -59.5q100 0 155.5 48t55.5 134q0 53 -30.5 92.5t-79.5 64.5t-107.5 47t-117.5 48.5t-108 60.5t-79.5 90.5t-30.5 131.5q0 131 88.5 210t234.5 79q151 0 242.5 -90.5t91.5 -239.5h-121q0 100 -56 156.5
t-157 56.5q-95 0 -147.5 -46.5t-52.5 -129.5q0 -45 24 -80t62.5 -56.5t88.5 -43.5t101.5 -40t101.5 -46t88.5 -61t62.5 -86.5t24 -121.5q0 -134 -91.5 -215.5t-242.5 -81.5z" />
    <glyph glyph-name="uni0456" unicode="&#x456;" horiz-adv-x="391" 
d="M195 1274q-44 0 -71.5 27t-27.5 71t27.5 71t71.5 27t71 -27t27 -71t-27 -71t-71 -27zM135 0v1075h121v-1075h-121z" />
    <glyph glyph-name="uni0457" unicode="&#x457;" horiz-adv-x="409" 
d="M90 1294q-36 0 -58 21t-22 57t22 57t58 21t57 -21t21 -57t-21 -57t-57 -21zM319 1294q-37 0 -59 21t-22 57t22 57t59 21q36 0 58 -21t22 -57t-22 -57t-58 -21zM143 0v1075h121v-1075h-121z" />
    <glyph glyph-name="uni0458" unicode="&#x458;" horiz-adv-x="477" 
d="M244 1272q-44 0 -71.5 27t-27.5 71t27.5 71t71.5 27t71 -27t27 -71t-27 -71t-71 -27zM-41 -393v117q122 3 172.5 65.5t50.5 190.5v1095h121v-1095q0 -176 -84.5 -274t-259.5 -99z" />
    <glyph glyph-name="uni0459" unicode="&#x459;" horiz-adv-x="1325" 
d="M10 -8v117q31 0 55.5 13.5t41 40.5t28.5 59.5t19.5 80t12 91.5t7.5 104q14 236 21 577h553v-395h196q148 0 250 -95.5t102 -242.5q0 -149 -102 -245.5t-250 -96.5h-317v961h-314q-4 -180 -20 -482q-12 -251 -77 -369t-206 -118zM748 117h196q99 0 164.5 62t65.5 163
q0 99 -65.5 160t-164.5 61h-196v-446z" />
    <glyph glyph-name="uni045A" unicode="&#x45a;" horiz-adv-x="1357" 
d="M979 641q147 0 248.5 -87.5t101.5 -221.5q0 -144 -101.5 -238t-248.5 -94h-317v524h-406v-524h-121v1075h121v-434h406v434h120v-434h197zM979 117q97 0 162 59.5t65 155.5q0 86 -65 139t-162 53h-197v-407h197z" />
    <glyph glyph-name="uni045B" unicode="&#x45b;" horiz-adv-x="942" 
d="M530 1100q289 0 289 -451v-649h-121v639q0 184 -47.5 265t-150.5 81q-114 0 -181 -89.5t-67 -246.5v-649h-121v1249h-131v94h131v138h121v-138h199v-94h-199v-309q92 160 278 160z" />
    <glyph glyph-name="uni045C" unicode="&#x45c;" horiz-adv-x="864" 
d="M608 1481l-178 -232h-119l154 232h143zM715 0l-375 514l-84 -102v-412h-121v1075h121v-487q93 110 160 194l239 293h156l-391 -467l444 -608h-149z" />
    <glyph glyph-name="uni045D" unicode="&#x45d;" horiz-adv-x="931" 
d="M268 1481h144l153 -232h-119zM135 0v1075h121v-614q0 -189 -4 -242l4 -4q22 52 72 160l344 700h125v-1075h-121v580q0 114 8 286l-4 2q-13 -44 -86 -194l-334 -674h-125z" />
    <glyph glyph-name="uni045E" unicode="&#x45e;" horiz-adv-x="792" 
d="M387 1243q-106 0 -166.5 62t-64.5 176h106q5 -69 34.5 -102t90.5 -33t90.5 33t34.5 102h106q-4 -114 -64.5 -176t-166.5 -62zM649 1075h127l-362 -1206q-39 -131 -95.5 -195.5t-160.5 -64.5h-70v119h53q64 0 96 40t56 119l67 222l-344 966h129l269 -784z" />
    <glyph glyph-name="uni045F" unicode="&#x45f;" horiz-adv-x="921" 
d="M666 1075h120v-1075h-262v-236h-116v236h-273v1075h121v-960h410v960z" />
    <glyph glyph-name="uni0490" unicode="&#x490;" horiz-adv-x="847" 
d="M694 1638h117v-323h-526v-1315h-127v1434h536v204z" />
    <glyph glyph-name="uni0491" unicode="&#x491;" horiz-adv-x="700" 
d="M553 1280h117v-322h-414v-958h-121v1075h418v205z" />
    <glyph glyph-name="Wgrave" unicode="&#x1e80;" horiz-adv-x="1458" 
d="M815 1575h-121l-215 231h148zM1303 1434h133l-318 -1434h-141l-174 780q-20 84 -41 222.5t-29 228.5h-8q-8 -90 -29 -228.5t-41 -222.5l-174 -780h-141l-317 1434h133l180 -885q70 -362 70 -365h8q3 14 29.5 157t43.5 228l172 842h140l172 -842q17 -85 43.5 -228
t29.5 -157h9q3 19 69 365z" />
    <glyph glyph-name="wgrave" unicode="&#x1e81;" horiz-adv-x="1245" 
d="M715 1239h-119l-178 231h143zM1102 1075h127l-266 -1075h-134l-131 535q-57 228 -73 364h-4q-15 -129 -74 -364l-131 -535h-133l-267 1075h127l133 -586q9 -37 70 -337h4q35 201 78 378l129 525h131l129 -525q43 -177 78 -378h4q61 300 70 337z" />
    <glyph glyph-name="Wacute" unicode="&#x1e82;" horiz-adv-x="1458" 
d="M631 1575l188 231h148l-215 -231h-121zM1303 1434h133l-318 -1434h-141l-174 780q-20 84 -41 222.5t-29 228.5h-8q-8 -90 -29 -228.5t-41 -222.5l-174 -780h-141l-317 1434h133l180 -885q70 -362 70 -365h8q3 14 29.5 157t43.5 228l172 842h140l172 -842
q17 -85 43.5 -228t29.5 -157h9q3 19 69 365z" />
    <glyph glyph-name="wacute" unicode="&#x1e83;" horiz-adv-x="1245" 
d="M805 1470l-178 -231h-119l154 231h143zM1102 1075h127l-266 -1075h-134l-131 535q-57 228 -73 364h-4q-15 -129 -74 -364l-131 -535h-133l-267 1075h127l133 -586q9 -37 70 -337h4q35 201 78 378l129 525h131l129 -525q43 -177 78 -378h4q61 300 70 337z" />
    <glyph glyph-name="Wdieresis" unicode="&#x1e84;" horiz-adv-x="1458" 
d="M596 1614q-37 0 -59.5 21.5t-22.5 58.5t22.5 58.5t59.5 21.5q36 0 58 -22t22 -58t-22 -58t-58 -22zM862 1614q-37 0 -60.5 22t-23.5 58t23.5 58t60.5 22t59.5 -21.5t22.5 -58.5t-22.5 -58.5t-59.5 -21.5zM1303 1434h133l-318 -1434h-141l-174 780q-20 84 -41 222.5
t-29 228.5h-8q-8 -90 -29 -228.5t-41 -222.5l-174 -780h-141l-317 1434h133l180 -885q70 -362 70 -365h8q3 14 29.5 157t43.5 228l172 842h140l172 -842q17 -85 43.5 -228t29.5 -157h9q3 19 69 365z" />
    <glyph glyph-name="wdieresis" unicode="&#x1e85;" horiz-adv-x="1245" 
d="M496 1282q-37 0 -59.5 21.5t-22.5 58.5t22.5 58.5t59.5 21.5q36 0 57.5 -22t21.5 -58t-21.5 -58t-57.5 -22zM737 1282q-37 0 -60.5 22t-23.5 58t23.5 58t60.5 22t59.5 -21.5t22.5 -58.5t-22.5 -58.5t-59.5 -21.5zM1102 1075h127l-266 -1075h-134l-131 535
q-57 228 -73 364h-4q-15 -129 -74 -364l-131 -535h-133l-267 1075h127l133 -586q9 -37 70 -337h4q35 201 78 378l129 525h131l129 -525q43 -177 78 -378h4q61 300 70 337z" />
    <glyph glyph-name="Ygrave" unicode="&#x1ef2;" horiz-adv-x="864" 
d="M518 1575h-121l-215 231h148zM369 0v514l-359 920h135l205 -553q13 -37 40.5 -111t41.5 -111l82 224l205 551h135l-358 -920v-514h-127z" />
    <glyph glyph-name="ygrave" unicode="&#x1ef3;" horiz-adv-x="792" 
d="M485 1249h-118l-179 232h144zM649 1075h127l-362 -1206q-39 -131 -95.5 -195.5t-160.5 -64.5h-70v119h53q64 0 96 40t56 119l67 222l-344 966h129l269 -784z" />
    <glyph glyph-name="endash" unicode="&#x2013;" horiz-adv-x="884" 
d="M94 469v115h697v-115h-697z" />
    <glyph glyph-name="emdash" unicode="&#x2014;" horiz-adv-x="1130" 
d="M94 584h942v-115h-942v115z" />
    <glyph glyph-name="quoteleft" unicode="&#x2018;" horiz-adv-x="256" 
d="M180 1008h-137l94 426h86z" />
    <glyph glyph-name="quoteright" unicode="&#x2019;" horiz-adv-x="256" 
d="M76 1448h137l-94 -426h-86z" />
    <glyph glyph-name="quotesinglbase" unicode="&#x201a;" horiz-adv-x="303" 
d="M104 160h138l-95 -426h-86z" />
    <glyph glyph-name="quotedblleft" unicode="&#x201c;" horiz-adv-x="460" 
d="M180 1008h-137l94 426h86zM385 1008h-137l94 426h86z" />
    <glyph glyph-name="quotedblright" unicode="&#x201d;" horiz-adv-x="460" 
d="M76 1434h137l-94 -426h-86zM281 1434h137l-94 -426h-86z" />
    <glyph glyph-name="quotedblbase" unicode="&#x201e;" horiz-adv-x="303" 
d="M104 160h138l-95 -426h-86z" />
    <glyph glyph-name="dagger" unicode="&#x2020;" horiz-adv-x="757" 
d="M696 1065v-115h-256v-1134h-123v1134h-256v115h256v410h123v-410h256z" />
    <glyph glyph-name="daggerdbl" unicode="&#x2021;" horiz-adv-x="757" 
d="M696 950h-256v-610h256v-115h-256v-409h-123v409h-256v115h256v610h-256v115h256v410h123v-410h256v-115z" />
    <glyph glyph-name="bullet" unicode="&#x2022;" horiz-adv-x="360" 
d="M180 381q-60 0 -96.5 36.5t-36.5 96.5q0 59 36.5 95t96.5 36q58 0 94.5 -36.5t36.5 -94.5q0 -60 -36 -96.5t-95 -36.5z" />
    <glyph glyph-name="ellipsis" unicode="&#x2026;" horiz-adv-x="1028" 
d="M186 -20q-43 0 -69.5 26.5t-26.5 69.5t26.5 69.5t69.5 26.5t70 -26.5t27 -69.5t-27 -69.5t-70 -26.5zM514 -20q-43 0 -69.5 26.5t-26.5 69.5t26.5 69.5t69.5 26.5t69.5 -26.5t26.5 -69.5t-26.5 -69.5t-69.5 -26.5zM842 -20q-43 0 -70 26.5t-27 69.5t27 69.5t70 26.5
t69.5 -26.5t26.5 -69.5t-26.5 -69.5t-69.5 -26.5z" />
    <glyph glyph-name="perthousand" unicode="&#x2030;" horiz-adv-x="1740" 
d="M229 805q-88 0 -143 58.5t-55 162.5v203q0 104 55.5 163.5t142.5 59.5q86 0 141.5 -59.5t55.5 -163.5v-203q0 -104 -55.5 -162.5t-141.5 -58.5zM20 0l996 1434h119l-996 -1434h-119zM229 901q44 0 70.5 30.5t26.5 94.5v203q0 66 -26.5 96.5t-70.5 30.5q-98 0 -98 -127
v-203q0 -125 98 -125zM934 -18q-88 0 -143.5 58.5t-55.5 162.5v203q0 104 56 163.5t143 59.5q86 0 141 -59.5t55 -163.5v-203q0 -104 -55 -162.5t-141 -58.5zM1446 -18q-88 0 -143.5 58.5t-55.5 162.5v203q0 104 56 163.5t143 59.5q86 0 141 -59.5t55 -163.5v-203
q0 -104 -55 -162.5t-141 -58.5zM934 78q44 0 70 30.5t26 94.5v203q0 126 -96 126q-98 0 -98 -126v-203q0 -125 98 -125zM1446 78q44 0 70 30.5t26 94.5v203q0 126 -96 126q-98 0 -98 -126v-203q0 -125 98 -125z" />
    <glyph glyph-name="guilsinglleft" unicode="&#x2039;" horiz-adv-x="561" 
d="M344 182l-250 314v61l250 313h123l-272 -344l272 -344h-123z" />
    <glyph glyph-name="guilsinglright" unicode="&#x203a;" horiz-adv-x="561" 
d="M217 182h-123l273 344l-273 344h123l250 -313v-61z" />
    <glyph glyph-name="fraction" unicode="&#x2044;" horiz-adv-x="1118" 
d="M29 0l925 1434h136l-926 -1434h-135z" />
    <glyph glyph-name="Euro" unicode="&#x20ac;" horiz-adv-x="1112" 
d="M918 389h122q-15 -197 -119.5 -305.5t-281.5 -108.5q-176 0 -283.5 114t-107.5 317v147h-170v96h170v133h-170v97h170v149q0 203 105 316.5t278 113.5q176 0 281.5 -108t115.5 -306h-123q-10 150 -80.5 224.5t-193.5 74.5q-120 0 -190 -80t-70 -235v-149h352v-97h-352
v-133h352v-96h-352v-147q0 -155 72.5 -235.5t195.5 -80.5q249 0 279 299z" />
    <glyph glyph-name="trademark" unicode="&#x2122;" horiz-adv-x="960" 
d="M66 1360v74h311v-74h-117v-477h-78v477h-116zM799 1434h84v-551h-76v155q0 89 6 260l-4 2q-8 -19 -27.5 -65t-23.5 -57l-60 -150h-73l-60 150q-4 11 -23.5 57t-27.5 65l-4 -2q6 -171 6 -260v-155h-76v551h84l78 -183q53 -128 60 -147q16 42 59 147z" />
    <glyph glyph-name="partialdiff" unicode="&#x2202;" horiz-adv-x="913" 
d="M328 1499q207 -53 342 -211t135 -377v-544q0 -185 -94.5 -286t-255.5 -101q-159 0 -252.5 101t-93.5 286v299q0 183 89.5 285t231.5 102q166 0 254 -111q-9 173 -116.5 284.5t-278.5 162.5zM682 367v299q0 134 -60 201t-165 67q-226 0 -226 -268v-299q0 -135 58.5 -202
t165.5 -67q108 0 167.5 67t59.5 202z" />
    <glyph glyph-name="emptyset" unicode="&#x2205;" horiz-adv-x="1677" 
d="M1569 1495l-211 -246q196 -202 196 -532q0 -331 -198.5 -533t-524.5 -202q-263 0 -446 135l-152 -178h-120l202 235q-99 98 -152.5 237t-53.5 306q0 331 198 533t524 202q272 0 457 -143l160 186h121zM205 717q0 -290 174 -467l848 987q-164 123 -396 123
q-282 0 -454 -177t-172 -466zM1458 717q0 281 -164 459l-845 -988q157 -114 382 -114q282 0 454.5 177t172.5 466z" />
    <glyph glyph-name="product" unicode="&#x220f;" horiz-adv-x="1028" 
d="M158 -203v1637h712v-1639h-122v1520h-467v-1518h-123z" />
    <glyph glyph-name="summation" unicode="&#x2211;" horiz-adv-x="743" 
d="M82 0v113l324 604l-324 604v113h580v-115h-453l311 -567v-70l-311 -567h453v-115h-580z" />
    <glyph glyph-name="minus" unicode="&#x2212;" horiz-adv-x="905" 
d="M94 575v115h717v-115h-717z" />
    <glyph glyph-name="radical" unicode="&#x221a;" horiz-adv-x="931" 
d="M901 1628l-309 -1628h-207l-172 911h-176v113h276l176 -891l289 1495h123z" />
    <glyph glyph-name="infinity" unicode="&#x221e;" horiz-adv-x="1294" 
d="M903 819q119 0 201 -84t82 -221q0 -136 -82 -218.5t-201 -82.5q-95 0 -154.5 46.5t-101.5 127.5q-42 -81 -101.5 -127.5t-154.5 -46.5q-119 0 -200.5 82.5t-81.5 218.5q0 137 81.5 221t200.5 84q92 0 152.5 -42.5t103.5 -117.5q43 75 103.5 117.5t152.5 42.5zM391 324
q37 0 66.5 15t53 47t38 60.5t35.5 77.5q-39 90 -81 137.5t-112 47.5q-75 0 -119.5 -49.5t-44.5 -145.5q0 -87 45.5 -138.5t118.5 -51.5zM903 324q73 0 118.5 51.5t45.5 138.5q0 96 -44.5 145.5t-119.5 49.5q-69 0 -111 -47t-81 -138q17 -40 27.5 -62.5t29 -52.5t36 -46
t43.5 -27.5t56 -11.5z" />
    <glyph glyph-name="integral" unicode="&#x222b;" horiz-adv-x="608" 
d="M33 -387v117q111 3 161 56t50 155v1185q0 151 85 239t249 89v-117q-112 -3 -162.5 -56t-50.5 -155v-1185q0 -151 -84.5 -239t-247.5 -89z" />
    <glyph glyph-name="approxequal" unicode="&#x2248;" horiz-adv-x="942" 
d="M774 848l66 -86q-78 -111 -189 -111q-65 0 -186 49.5t-166 49.5q-78 0 -131 -76l-64 92q80 104 187 104q65 0 186 -49t166 -49q78 0 131 76zM774 537l66 -86q-78 -111 -189 -111q-65 0 -186 49t-166 49q-78 0 -131 -76l-64 93q80 104 187 104q65 0 186 -49t166 -49
q78 0 131 76z" />
    <glyph glyph-name="notequal" unicode="&#x2260;" horiz-adv-x="942" 
d="M829 813h-249l-103 -190h352v-115h-411l-84 -158h-115l84 158h-190v115h249l103 190h-352v115h411l84 157h115l-84 -157h190v-115z" />
    <glyph glyph-name="lessequal" unicode="&#x2264;" horiz-adv-x="843" 
d="M750 1047v-121l-527 -232l527 -231v-121l-656 285v135zM94 147v113h656v-113h-656z" />
    <glyph glyph-name="greaterequal" unicode="&#x2265;" horiz-adv-x="843" 
d="M94 1047l656 -285v-135l-656 -285v121l527 231l-527 232v121zM94 147v113h656v-113h-656z" />
    <glyph glyph-name="lozenge" unicode="&#x25ca;" horiz-adv-x="929" 
d="M399 -2l-290 678v82l290 676h131l291 -676v-82l-291 -678h-131zM465 106l254 611l-254 610l-254 -610z" />
    <glyph glyph-name="uni0162.ss01" horiz-adv-x="831" 
d="M479 0h-20l-33 -104q12 4 31 4q56 0 97.5 -40t41.5 -104q0 -68 -51 -108.5t-131 -40.5q-74 0 -124.5 39t-56.5 106h101q6 -27 28.5 -42t55.5 -15q38 0 62 18t24 49q0 72 -80 72q-40 0 -64 -14l-32 33l45 147h-21v1315h-315v119h758v-119h-316v-1315z" />
    <glyph glyph-name="i.loclTRK" horiz-adv-x="391" 
d="M195 1274q-44 0 -71.5 27t-27.5 71t27.5 71t71.5 27t71 -27t27 -71t-27 -71t-71 -27zM135 0v1075h121v-1075h-121z" />
    <glyph glyph-name="uni0163.ss01" horiz-adv-x="608" 
d="M506 -10q-44 0 -92 10l-39 -104q12 4 31 4q56 0 97.5 -40t41.5 -104q0 -68 -51.5 -108.5t-131.5 -40.5q-74 0 -124 39t-56 106h101q6 -27 28.5 -42t55.5 -15q38 0 62 18t24 49q0 72 -80 72q-39 0 -64 -14l-33 33l62 178q-137 78 -137 288v644h-164v112h164v248h121v-248
h221v-112h-221v-644q0 -215 184 -215h61v-114h-61z" />
    <glyph glyph-name="uni0414.loclBGR" horiz-adv-x="958" 
d="M0 -236v355h90l322 1315h137l319 -1315h90v-355h-122v236h-713v-236h-123zM219 119h522l-168 731l-92 424h-4q-50 -256 -88 -422z" />
    <glyph glyph-name="uni041B.loclBGR" horiz-adv-x="921" 
d="M387 1434h148l364 -1434h-135l-215 897q-16 68 -43 186.5t-41 176.5h-8q-14 -58 -41 -176.5t-43 -186.5l-215 -897h-135z" />
    <glyph glyph-name="hacy.001" horiz-adv-x="778" 
d="M768 0h-141l-238 438l-237 -438h-142l309 537l-294 538h137l227 -422l227 422h138l-293 -538z" />
    <glyph glyph-name="uni0432.loclBGR" horiz-adv-x="933" 
d="M602 795q244 -59 244 -377q0 -214 -105 -326t-274 -112q-334 0 -334 440v682q0 186 87.5 291.5t246.5 105.5q150 0 238 -99t88 -265q0 -124 -50.5 -211.5t-140.5 -128.5zM453 1382q-93 0 -146 -72t-53 -208v-283l137 10q131 9 205 90.5t74 210.5q0 252 -217 252zM465 98
q258 0 258 310q0 173 -75 243.5t-228 61.5l-166 -11v-301q0 -160 52.5 -231.5t158.5 -71.5z" />
    <glyph glyph-name="uni0433.loclBGR" horiz-adv-x="815" 
d="M410 -20q-155 0 -247.5 77.5t-92.5 214.5q0 71 29.5 127t76.5 92t103.5 65.5t113 54t103.5 51t76.5 64t29.5 85.5q0 82 -49 127t-137 45q-205 0 -205 -211h-121q0 148 90 238t236 90q143 0 227 -76.5t84 -208.5q0 -69 -29.5 -123.5t-76.5 -89t-103.5 -63.5t-113 -54
t-103.5 -52.5t-76.5 -67t-29.5 -89.5q0 -83 60.5 -130.5t154.5 -47.5q104 0 160 56t61 165h121q-4 -153 -98 -246t-244 -93z" />
    <glyph glyph-name="uni0434.loclBGR" horiz-adv-x="948" 
d="M713 1075h100v-1149q0 -145 -93.5 -233t-248.5 -88q-149 0 -241.5 84t-100.5 227h117q7 -96 66 -147.5t159 -51.5q103 0 162 55.5t59 153.5v209q-82 -102 -237 -102q-158 0 -252 101t-94 282v276q0 196 93 302t249 106q157 0 245 -133zM475 147q103 0 160 67.5t57 201.5
v297q0 133 -61 202.5t-156 69.5q-244 0 -244 -293v-276q0 -134 64 -201.5t180 -67.5z" />
    <glyph glyph-name="uni0436.loclBGR" horiz-adv-x="1214" 
d="M1069 0l-330 518l-73 -92v-426h-117v426l-74 94l-330 -520h-145l399 614l-368 461h151l367 -475v879h117v-879l366 475h152l-369 -461l399 -614h-145z" />
    <glyph glyph-name="uni0437.loclBGR" horiz-adv-x="864" 
d="M559 389q116 -39 167.5 -131.5t51.5 -245.5q0 -189 -95.5 -296t-270.5 -107q-162 0 -252 95t-99 286h121q17 -262 228 -262q119 0 182 76.5t63 213.5q0 146 -72.5 227t-203.5 81h-115v114h107q121 0 188.5 73t67.5 208q0 122 -57 191t-158 69q-197 0 -215 -262h-121
q9 188 96 284.5t242 96.5q158 0 244.5 -98t86.5 -275q0 -133 -41.5 -214.5t-144.5 -123.5z" />
    <glyph glyph-name="uni0438.loclBGR" horiz-adv-x="946" 
d="M690 1075h121v-1075h-100l-21 133q-91 -158 -278 -158q-137 0 -213 99.5t-76 312.5v688h121v-669q0 -164 46.5 -240t151.5 -76q113 0 180.5 89.5t67.5 244.5v651z" />
    <glyph glyph-name="uni0439.loclBGR" horiz-adv-x="946" 
d="M467 1243q-106 0 -166.5 62t-64.5 176h106q5 -69 34.5 -102t90.5 -33t90.5 33t34.5 102h106q-4 -114 -64.5 -176t-166.5 -62zM690 1075h121v-1075h-100l-21 133q-91 -158 -278 -158q-137 0 -213 99.5t-76 312.5v688h121v-669q0 -164 46.5 -240t151.5 -76
q113 0 180.5 89.5t67.5 244.5v651z" />
    <glyph glyph-name="uni045D.loclBGR" horiz-adv-x="958" 
d="M584 1249h-119l-178 232h143zM702 1075h121v-1075h-100l-21 133q-91 -158 -278 -158q-137 0 -213 99.5t-76 312.5v688h121v-669q0 -164 47 -240t152 -76q113 0 180 89t67 245v651z" />
    <glyph glyph-name="uni043A.loclBGR" horiz-adv-x="870" 
d="M725 0l-363 547l-106 -117v-430h-121v1483h121v-887l408 479h153l-373 -434l426 -641h-145z" />
    <glyph glyph-name="uni043B.loclBGR" horiz-adv-x="774" 
d="M631 0l-170 629q-15 59 -70 289h-8q-55 -230 -70 -289l-170 -629h-127l306 1075h131l305 -1075h-127z" />
    <glyph glyph-name="uni043F.loclBGR" horiz-adv-x="946" 
d="M535 1100q288 0 288 -412v-688h-121v670q0 164 -46.5 239.5t-151.5 75.5q-113 0 -180.5 -89.5t-67.5 -244.5v-651h-121v1075h101l20 -133q91 158 279 158z" />
    <glyph glyph-name="uni0442.loclBGR" horiz-adv-x="1480" 
d="M1079 1100q129 0 204 -104.5t75 -311.5v-684h-121v674q0 164 -46.5 237.5t-137.5 73.5q-110 0 -178 -89.5t-68 -244.5v-651h-121v674q0 163 -48.5 237t-141.5 74q-109 0 -174.5 -89.5t-65.5 -244.5v-651h-121v1075h101l18 -139q85 164 268 164q192 0 258 -207
q39 97 113.5 152t185.5 55z" />
    <glyph glyph-name="uni0446.loclBGR" horiz-adv-x="972" 
d="M809 -236v236q-91 35 -113 147q-91 -172 -288 -172q-141 0 -213 98.5t-72 313.5v688h121v-669q0 -165 45.5 -240.5t148.5 -75.5q113 0 180.5 89.5t67.5 244.5v651h121v-799q0 -76 13.5 -113.5t36.5 -48t69 -10.5v-340h-117z" />
    <glyph glyph-name="uni0448.loclBGR" horiz-adv-x="1480" 
d="M1225 1075h121v-1075h-101l-18 139q-85 -164 -269 -164q-192 0 -258 207q-39 -97 -113.5 -152t-185.5 -55q-129 0 -203.5 104.5t-74.5 311.5v684h121v-674q0 -164 46.5 -237.5t137.5 -73.5q110 0 178 89.5t68 244.5v651h121v-674q0 -163 48.5 -237t141.5 -74
q109 0 174.5 89.5t65.5 244.5v651z" />
    <glyph glyph-name="uni0449.loclBGR" horiz-adv-x="1503" 
d="M1337 276q0 -76 13.5 -113.5t36.5 -48t69 -10.5v-340h-117v236q-89 34 -114 152q-82 -177 -273 -177q-89 0 -154 50t-98 149q-80 -199 -297 -199q-131 0 -205.5 104.5t-74.5 311.5v684h121v-674q0 -164 47 -237.5t139 -73.5q110 0 175 89.5t65 244.5v651h121v-674
q0 -164 47.5 -237.5t140.5 -73.5q108 0 173 89.5t65 244.5v651h120v-799z" />
    <glyph glyph-name="uni044C.loclBGR" horiz-adv-x="837" 
d="M479 739q148 3 239 -99.5t91 -277.5q0 -181 -94.5 -284t-251.5 -103q-155 0 -247.5 96.5t-92.5 256.5v747h121v-442q84 103 235 106zM463 94q107 0 165 68t58 200q0 128 -57.5 194.5t-165.5 66.5q-103 0 -161 -68.5t-58 -198.5q0 -129 57.5 -195.5t161.5 -66.5z" />
    <glyph glyph-name="uni044A.loclBGR" horiz-adv-x="946" 
d="M588 739q148 3 239 -99.5t91 -277.5q0 -181 -95 -284t-252 -103q-155 0 -247.5 96.5t-92.5 256.5v635h-217v112h338v-442q84 103 236 106zM571 94q107 0 165.5 68t58.5 200q0 128 -58 194.5t-166 66.5q-103 0 -161 -68.5t-58 -198.5q0 -129 57.5 -195.5t161.5 -66.5z" />
    <glyph glyph-name="uni044E.loclBGR" horiz-adv-x="1257" 
d="M803 1090q159 0 252.5 -101.5t93.5 -286.5v-335q0 -185 -93.5 -286t-252.5 -101t-252.5 101t-93.5 286v127h-195v-494h-121v1475h121v-865h195v92q0 185 93.5 286.5t252.5 101.5zM1026 367v335q0 135 -58 202t-165 67t-165 -67t-58 -202v-335q0 -135 58 -202t165 -67
t165 67t58 202z" />
    <glyph glyph-name="emdash.case" horiz-adv-x="1130" 
d="M94 788h942v-114h-942v114z" />
    <glyph glyph-name="endash.case" horiz-adv-x="884" 
d="M94 674v114h697v-114h-697z" />
    <glyph glyph-name="hyphen.case" horiz-adv-x="679" 
d="M94 674v114h492v-114h-492z" />
    <glyph glyph-name="guillemotleft.case" horiz-adv-x="888" 
d="M344 305l-250 313v62l250 313h123l-272 -344l272 -344h-123zM672 305l-250 313v62l250 313h123l-273 -344l273 -344h-123z" />
    <glyph glyph-name="guillemotright.case" horiz-adv-x="888" 
d="M217 305h-123l273 344l-273 344h123l250 -313v-62zM545 305h-123l272 344l-272 344h123l250 -313v-62z" />
    <glyph glyph-name="guilsinglleft.case" horiz-adv-x="561" 
d="M344 305l-250 313v62l250 313h123l-272 -344l272 -344h-123z" />
    <glyph glyph-name="guilsinglright.case" horiz-adv-x="561" 
d="M217 305h-123l273 344l-273 344h123l250 -313v-62z" />
    <glyph glyph-name="uni0308.case" 
d="M-336 1614q-37 0 -59.5 21.5t-22.5 58.5t22.5 58.5t59.5 21.5q36 0 58 -22t22 -58t-22 -58t-58 -22zM-70 1614q-37 0 -60.5 22t-23.5 58t23.5 58t60.5 22t59.5 -21.5t22.5 -58.5t-22.5 -58.5t-59.5 -21.5z" />
    <glyph glyph-name="uni0307.case" 
d="M-88 1626q-44 0 -71 27t-27 71t27 71.5t71 27.5t71 -27.5t27 -71.5t-27 -71t-71 -27z" />
    <glyph glyph-name="gravecomb.case" 
d="M-18 1575h-121l-215 231h147z" />
    <glyph glyph-name="acutecomb.case" 
d="M-336 1575l189 231h147l-215 -231h-121z" />
    <glyph glyph-name="uni030B.case" 
d="M-170 1806l-168 -231h-108l139 231h137zM39 1806l-176 -231h-109l148 231h137z" />
    <glyph glyph-name="uni0302.case" 
d="M-23 1575h-114l-117 143l-117 -143h-114l166 231h131z" />
    <glyph glyph-name="uni030C.case" 
d="M-145 1806h114l-166 -231h-131l-166 231h115l117 -143z" />
    <glyph glyph-name="uni0306.case" 
d="M-236 1569q-106 0 -166.5 61.5t-64.5 175.5h107q5 -69 34.5 -102t89.5 -33q61 0 90.5 33t34.5 102h107q-4 -114 -65 -175.5t-167 -61.5z" />
    <glyph glyph-name="uni030A.case" 
d="M-283 1706q0 61 39.5 99t104.5 38q64 0 103.5 -37.5t39.5 -99.5q0 -63 -39.5 -102t-103.5 -39t-104 39t-40 102zM-203 1704q0 -29 17.5 -46.5t46.5 -17.5q28 0 45.5 17.5t17.5 46.5q0 28 -17.5 45.5t-45.5 17.5q-29 0 -46.5 -17.5t-17.5 -45.5z" />
    <glyph glyph-name="tildecomb.case" 
d="M-291 1694q-33 0 -39 -60h-110q3 74 40.5 117t98.5 43q36 0 67 -16.5t53.5 -32.5t39.5 -16q41 0 47 59h102q-8 -75 -44 -117.5t-95 -42.5q-35 0 -65.5 16.5t-53.5 33t-41 16.5z" />
    <glyph glyph-name="uni0304.case" 
d="M-377 1739h377v-107h-377v107z" />
    <glyph glyph-name="uni0312.case" 
d="M-154 1937l86 -362h-137l-37 362h88z" />
    <glyph glyph-name="uni0326.case" 
d="M-197 -510l37 369h133l-75 -369h-95z" />
    <glyph glyph-name="uni0327.case" 
d="M-223 -399q-74 0 -124 39.5t-56 109.5h100q6 -27 28.5 -42t55.5 -15q38 0 62 18.5t24 52.5q0 70 -80 70q-38 0 -63 -14l-35 33l45 147h88l-31 -102q8 2 29 2q59 0 102 -39t43 -99q0 -75 -52 -118t-136 -43z" />
    <glyph glyph-name="uni0328.case" 
d="M10 -381q-35 -12 -84 -12q-89 0 -132.5 48.5t-43.5 117.5q0 120 123 227h113q-51 -44 -85 -102.5t-34 -104.5q0 -38 23 -56t55 -18q44 0 65 7v-107z" />
    <glyph glyph-name="uni0337.case" 
d="M-449 -90l334 1216h121l-334 -1216h-121z" />
    <glyph glyph-name="uni0338.case" 
d="M-780 -76l440 1585h121l-440 -1585h-121z" />
    <glyph glyph-name="brevecombcy" 
d="M-236 1243q-106 0 -166.5 62t-64.5 176h107q5 -69 34.5 -102t89.5 -33q61 0 90.5 33t34.5 102h107q-4 -114 -65 -176t-167 -62z" />
    <glyph glyph-name="brevecombcy.case" 
d="M-236 1569q-106 0 -166.5 61.5t-64.5 175.5h107q5 -69 34.5 -102t89.5 -33q61 0 90.5 33t34.5 102h107q-4 -114 -65 -175.5t-167 -61.5z" />
    </font>
</defs>
</svg>
